<svg xmlns="http://www.w3.org/2000/svg" xmlns:ooo="http://xml.openoffice.org/svg/export" xmlns:xlink="http://www.w3.org/1999/xlink" xml:space="preserve" width="210mm" height="130mm" fill-rule="evenodd" stroke-linejoin="round" stroke-width="28.222" preserveAspectRatio="xMidYMid" version="1.2" viewBox="0 0 21000 13000"><defs class="ClipPathGroup"><clipPath id="a" clipPathUnits="userSpaceOnUse"><path d="M0 0h21000v13000H0z"/></clipPath></defs><defs class="EmbeddedBulletChars"><path id="b" d="M813 0C632 0 489 54 383 161 276 268 223 411 223 592s53 324 160 431c106 107 249 161 430 161 179 0 323-54 432-161 108-107 162-251 162-431s-54-324-162-431C1136 54 992 0 813 0" transform="scale(.00049 -.00049)"/></defs><g class="SlideGroup"><g class="Slide" clip-path="url(#a)"><g class="Page"><g class="com.sun.star.drawing.CustomShape"><path fill="none" d="M2999 749h7003v1253H2999z" class="BoundingBox"/><path fill="#729FCF" d="M6500 2000H3000V750h7000v1250z"/><path fill="none" stroke="#3465A4" d="M6500 2000H3000V750h7000v1250z"/><text class="SVGTextShape"><tspan class="TextParagraph" font-family="Liberation Sans, sans-serif" font-size="635" font-weight="400"><tspan x="4972" y="1596" class="TextPosition"><tspan style="white-space:pre">Disziplinen</tspan></tspan></tspan></text></g><g class="com.sun.star.drawing.CustomShape"><path fill="none" d="M10999 749h7003v1253h-7003z" class="BoundingBox"/><path fill="#729FCF" d="M14500 2000h-3500V750h7000v1250z"/><path fill="none" stroke="#3465A4" d="M14500 2000h-3500V750h7000v1250z"/><text class="SVGTextShape"><tspan class="TextParagraph" font-family="Liberation Sans, sans-serif" font-size="635" font-weight="400"><tspan x="11990" y="1596" class="TextPosition"><tspan style="white-space:pre">Wertungsgruppen</tspan></tspan></tspan></text></g><g class="com.sun.star.drawing.CustomShape"><path fill="none" d="M2999 1999h7003v1753H2999z" class="BoundingBox"/><path fill="#FFDBB6" d="M6500 3750H3000V2000h7000v1750z"/><path fill="none" stroke="#FF972F" d="M6500 3750H3000V2000h7000v1750z"/><text class="SVGTextShape"><tspan ooo:numbering-type="bullet-style" class="ListItem" font-family="Liberation Sans, sans-serif" font-size="353" font-weight="400"><tspan x="4850" y="2602" class="TextPosition"><tspan style="white-space:pre">Löschangriff</tspan></tspan></tspan><tspan ooo:numbering-type="bullet-style" class="ListItem" font-family="Liberation Sans, sans-serif" font-size="353" font-weight="400"><tspan x="4850" y="2996" class="TextPosition"><tspan style="white-space:pre">Hindernisbahn</tspan></tspan></tspan><tspan ooo:numbering-type="bullet-style" class="ListItem" font-family="Liberation Sans, sans-serif" font-size="353" font-weight="400"><tspan x="4850" y="3390" class="TextPosition"><tspan style="white-space:pre">Hakenleitersteigen</tspan></tspan></tspan></text><g class="BulletChars"><use xlink:href="#b" class="BulletChar" transform="matrix(158 0 0 158 4250 3306)"/><use xlink:href="#b" class="BulletChar" transform="matrix(158 0 0 158 4250 2912)"/><use xlink:href="#b" class="BulletChar" transform="matrix(158 0 0 158 4250 2518)"/></g></g><g class="com.sun.star.drawing.CustomShape"><path fill="none" d="M10999 1999h7003v1753h-7003z" class="BoundingBox"/><path fill="#FFDBB6" d="M14500 3750h-3500V2000h7000v1750z"/><path fill="none" stroke="#FF972F" d="M14500 3750h-3500V2000h7000v1750z"/><text class="SVGTextShape"><tspan ooo:numbering-type="bullet-style" class="ListItem" font-family="Liberation Sans, sans-serif" font-size="353" font-weight="400"><tspan x="13450" y="2602" class="TextPosition"><tspan style="white-space:pre">Frauen</tspan></tspan></tspan><tspan ooo:numbering-type="bullet-style" class="ListItem" font-family="Liberation Sans, sans-serif" font-size="353" font-weight="400"><tspan x="13450" y="2996" class="TextPosition"><tspan style="white-space:pre">Männer</tspan></tspan></tspan><tspan ooo:numbering-type="bullet-style" class="ListItem" font-family="Liberation Sans, sans-serif" font-size="353" font-weight="400"><tspan x="13450" y="3390" class="TextPosition"><tspan style="white-space:pre">Jugend</tspan></tspan></tspan></text><g class="BulletChars"><use xlink:href="#b" class="BulletChar" transform="matrix(158 0 0 158 12850 3306)"/><use xlink:href="#b" class="BulletChar" transform="matrix(158 0 0 158 12850 2912)"/><use xlink:href="#b" class="BulletChar" transform="matrix(158 0 0 158 12850 2518)"/></g></g><g class="com.sun.star.drawing.CustomShape"><path fill="none" d="M6999 4999h7003v1253H6999z" class="BoundingBox"/><path fill="#729FCF" d="M10500 6250H7000V5000h7000v1250z"/><path fill="none" stroke="#3465A4" d="M10500 6250H7000V5000h7000v1250z"/><text class="SVGTextShape"><tspan class="TextParagraph" font-family="Liberation Sans, sans-serif" font-size="635" font-weight="400"><tspan x="8957" y="5846" class="TextPosition"><tspan style="white-space:pre">Wertungen</tspan></tspan></tspan></text></g><g class="com.sun.star.drawing.CustomShape"><path fill="none" d="M6999 6249h7003v1753H6999z" class="BoundingBox"/><path fill="#FFDBB6" d="M10500 8000H7000V6250h7000v1750z"/><path fill="none" stroke="#FF972F" d="M10500 8000H7000V6250h7000v1750z"/><text class="SVGTextShape"><tspan ooo:numbering-type="bullet-style" class="ListItem" font-family="Liberation Sans, sans-serif" font-size="353" font-weight="400"><tspan x="7850" y="6852" class="TextPosition"><tspan style="white-space:pre">Löschangriff - Frauen</tspan></tspan></tspan><tspan ooo:numbering-type="bullet-style" class="ListItem" font-family="Liberation Sans, sans-serif" font-size="353" font-weight="400"><tspan x="7850" y="7246" class="TextPosition"><tspan style="white-space:pre">Hindernisbahn - Männer</tspan></tspan></tspan><tspan ooo:numbering-type="bullet-style" class="ListItem" font-family="Liberation Sans, sans-serif" font-size="353" font-weight="400"><tspan x="7850" y="7640" class="TextPosition"><tspan style="white-space:pre">Hakenleitersteigen - Jugend</tspan></tspan></tspan></text><g class="BulletChars"><use xlink:href="#b" class="BulletChar" transform="matrix(158 0 0 158 7250 7556)"/><use xlink:href="#b" class="BulletChar" transform="matrix(158 0 0 158 7250 7162)"/><use xlink:href="#b" class="BulletChar" transform="matrix(158 0 0 158 7250 6768)"/></g></g><g fill="none" class="com.sun.star.drawing.ConnectorShape"><path d="M6499 3749h4003v1253H6499z" class="BoundingBox"/><path stroke="#3465A4" d="M6500 3750v625h4000v625"/></g><g class="com.sun.star.drawing.ConnectorShape"><path fill="none" d="M10400 3749h4102v1252h-4102z" class="BoundingBox"/><path fill="none" stroke="#3465A4" d="M14500 3750v625h-4000v415"/><path fill="#3465A4" d="m10401 4793 88 199 5 6 6 2 6-2 4-6 89-199 1-3v-1l-1-5-2-4-4-2-4-1h-178l-4 1-4 2-2 4-1 5v1z"/></g><g class="com.sun.star.drawing.CustomShape"><path fill="none" d="M6999 9249h7003v1003H6999z" class="BoundingBox"/><path fill="#729FCF" d="M10500 10250H7000V9250h7000v1000z"/><path fill="none" stroke="#3465A4" d="M10500 10250H7000V9250h7000v1000z"/><text class="SVGTextShape"><tspan class="TextParagraph" font-family="Liberation Sans, sans-serif" font-size="635" font-weight="400"><tspan x="8917" y="9971" class="TextPosition"><tspan style="white-space:pre">Ergebnisse</tspan></tspan></tspan></text></g><g class="com.sun.star.drawing.CustomShape"><path fill="none" d="M6999 10249h7003v1753H6999z" class="BoundingBox"/><path fill="#FFDBB6" d="M10500 12000H7000v-1750h7000v1750z"/><path fill="none" stroke="#FF972F" d="M10500 12000H7000v-1750h7000v1750z"/><text class="SVGTextShape"><tspan ooo:numbering-type="bullet-style" class="ListItem" font-family="Liberation Sans, sans-serif" font-size="353" font-weight="400"><tspan x="7850" y="10852" class="TextPosition"><tspan style="white-space:pre">Löschangriff - Frauen</tspan></tspan></tspan><tspan ooo:numbering-type="bullet-style" class="ListItem" font-family="Liberation Sans, sans-serif" font-size="353" font-weight="400"><tspan x="7850" y="11246" class="TextPosition"><tspan style="white-space:pre">Hindernisbahn - Männer</tspan></tspan></tspan><tspan ooo:numbering-type="bullet-style" class="ListItem" font-family="Liberation Sans, sans-serif" font-size="353" font-weight="400"><tspan x="7850" y="11640" class="TextPosition"><tspan style="white-space:pre">Hindernisbahn - Finale - Männer</tspan></tspan></tspan></text><g class="BulletChars"><use xlink:href="#b" class="BulletChar" transform="matrix(158 0 0 158 7250 11556)"/><use xlink:href="#b" class="BulletChar" transform="matrix(158 0 0 158 7250 11162)"/><use xlink:href="#b" class="BulletChar" transform="matrix(158 0 0 158 7250 10768)"/></g></g><g class="com.sun.star.drawing.ConnectorShape"><path fill="none" d="M10400 7999h201v1252h-201z" class="BoundingBox"/><path fill="none" stroke="#3465A4" d="M10500 8000v1063"/><path fill="#3465A4" d="m10600 9050-100 200-100-200z"/></g><g class="com.sun.star.drawing.CustomShape"><path fill="none" d="M13534 6999h6719v4504h-6719z" class="BoundingBox"/><path fill="#FFF5CE" d="M16081 7000c-146 0-289 35-415 100-127 66-232 160-305 274s-111 243-111 374l-1715-216 1715 1337v1884c0 131 38 260 111 374s178 208 305 274c126 65 269 100 415 100h3339c146 0 289-35 415-100 127-66 232-160 305-274s111-243 111-374V7748c0-131-38-260-111-374s-178-208-305-274c-126-65-269-100-415-100z"/><path fill="none" stroke="#3465A4" d="M16081 7000c-146 0-289 35-415 100-127 66-232 160-305 274s-111 243-111 374l-1715-216 1715 1337v1884c0 131 38 260 111 374s178 208 305 274c126 65 269 100 415 100h3339c146 0 289-35 415-100 127-66 232-160 305-274s111-243 111-374V7748c0-131-38-260-111-374s-178-208-305-274c-126-65-269-100-415-100z"/><text class="SVGTextShape"><tspan class="TextParagraph" font-family="Liberation Sans, sans-serif" font-size="423" font-weight="400"><tspan x="15778" y="7976" class="TextPosition"><tspan style="white-space:pre">Wertungen bestehen </tspan></tspan><tspan x="15805" y="8450" class="TextPosition"><tspan style="white-space:pre">aus einer Disziplin in </tspan></tspan><tspan x="15803" y="8924" class="TextPosition"><tspan style="white-space:pre">Verbindung mit einer </tspan></tspan><tspan x="15885" y="9398" class="TextPosition"><tspan style="white-space:pre">Wertungsgruppe. In </tspan></tspan><tspan x="15803" y="9872" class="TextPosition"><tspan style="white-space:pre">der Regel ergibt sich </tspan></tspan><tspan x="15742" y="10346" class="TextPosition"><tspan style="white-space:pre">auch automatisch ein </tspan></tspan><tspan x="16074" y="10820" class="TextPosition"><tspan style="white-space:pre">passender Name.</tspan></tspan></tspan></text></g><g class="com.sun.star.drawing.CustomShape"><path fill="none" d="M999 8499h6866v3504H999z" class="BoundingBox"/><path fill="#FFF5CE" d="M1914 8500c-160 0-318 27-457 78s-254 124-335 213c-80 88-122 189-122 291v2337c0 102 42 203 122 291 81 89 196 162 335 213s297 78 457 78h3673c160 0 318-27 457-78s254-124 335-213c80-88 122-189 122-291V9953l1362-333-1362-539v1c0-102-42-203-122-291-81-89-196-162-335-213s-297-78-457-78z"/><path fill="none" stroke="#3465A4" d="M1914 8500c-160 0-318 27-457 78s-254 124-335 213c-80 88-122 189-122 291v2337c0 102 42 203 122 291 81 89 196 162 335 213s297 78 457 78h3673c160 0 318-27 457-78s254-124 335-213c80-88 122-189 122-291V9953l1362-333-1362-539v1c0-102-42-203-122-291-81-89-196-162-335-213s-297-78-457-78z"/><text class="SVGTextShape"><tspan class="TextParagraph" font-family="Liberation Sans, sans-serif" font-size="423" font-weight="400"><tspan x="1945" y="9213" class="TextPosition"><tspan style="white-space:pre">Eine Wertung kann </tspan></tspan><tspan x="1839" y="9687" class="TextPosition"><tspan style="white-space:pre">mehrere Ergebnisse </tspan></tspan><tspan x="1610" y="10161" class="TextPosition"><tspan style="white-space:pre">haben. So wurden hier </tspan></tspan><tspan x="2360" y="10635" class="TextPosition"><tspan style="white-space:pre">in der Wertung </tspan></tspan><tspan x="1517" y="11109" class="TextPosition"><tspan style="white-space:pre">Hindernisbahn auch ein </tspan></tspan><tspan x="1860" y="11583" class="TextPosition"><tspan style="white-space:pre">Finale durchgeführt.</tspan></tspan></tspan></text></g><g class="com.sun.star.drawing.CustomShape"><path fill="none" d="M749 3172h4754v4331H749z" class="BoundingBox"/><path fill="#FFF5CE" d="M1539 4000h1c-139 0-275 27-395 78s-220 124-289 213c-70 88-106 189-106 291v2337c0 102 36 203 106 291 69 89 169 162 289 213s256 78 395 78h3171c139 0 275-27 395-78s220-124 289-213c70-88 106-189 106-291V4581v1c0-102-36-203-106-291-69-89-169-162-289-213s-256-78-395-78l-739-827-444 827z"/><path fill="none" stroke="#3465A4" d="M1539 4000h1c-139 0-275 27-395 78s-220 124-289 213c-70 88-106 189-106 291v2337c0 102 36 203 106 291 69 89 169 162 289 213s256 78 395 78h3171c139 0 275-27 395-78s220-124 289-213c70-88 106-189 106-291V4581v1c0-102-36-203-106-291-69-89-169-162-289-213s-256-78-395-78l-739-827-444 827z"/><text class="SVGTextShape"><tspan class="TextParagraph" font-family="Liberation Sans, sans-serif" font-size="423" font-weight="400"><tspan x="1252" y="4713" class="TextPosition"><tspan style="white-space:pre">Wenn eine Wertung </tspan></tspan><tspan x="1862" y="5187" class="TextPosition"><tspan style="white-space:pre">verschiedene </tspan></tspan><tspan x="1402" y="5661" class="TextPosition"><tspan style="white-space:pre">Wettkampfbahnen </tspan></tspan><tspan x="1269" y="6135" class="TextPosition"><tspan style="white-space:pre">braucht, dann ist es </tspan></tspan><tspan x="2001" y="6609" class="TextPosition"><tspan style="white-space:pre">eine andere </tspan></tspan><tspan x="2279" y="7083" class="TextPosition"><tspan style="white-space:pre">Disziplin.</tspan></tspan></tspan></text></g><g class="com.sun.star.drawing.CustomShape"><path fill="none" d="M15499 2949h4754v3554h-4754z" class="BoundingBox"/><path fill="#FFF5CE" d="M16289 3500h1c-139 0-275 23-395 67s-220 107-289 182c-70 76-106 162-106 250v2003c0 88 36 174 106 250 69 75 169 138 289 182s256 67 395 67h3171c139 0 275-23 395-67s220-107 289-182c70-76 106-162 106-250V3998v1c0-88-36-174-106-250-69-75-169-138-289-182s-256-67-395-67h-1989l-1597-550z"/><path fill="none" stroke="#3465A4" d="M16289 3500h1c-139 0-275 23-395 67s-220 107-289 182c-70 76-106 162-106 250v2003c0 88 36 174 106 250 69 75 169 138 289 182s256 67 395 67h3171c139 0 275-23 395-67s220-107 289-182c70-76 106-162 106-250V3998v1c0-88-36-174-106-250-69-75-169-138-289-182s-256-67-395-67h-1989l-1597-550z"/><text class="SVGTextShape"><tspan class="TextParagraph" font-family="Liberation Sans, sans-serif" font-size="423" font-weight="400"><tspan x="16209" y="4437" class="TextPosition"><tspan style="white-space:pre">Gruppen, die sich </tspan></tspan><tspan x="16624" y="4911" class="TextPosition"><tspan style="white-space:pre">nicht messen </tspan></tspan><tspan x="16129" y="5385" class="TextPosition"><tspan style="white-space:pre">wollen, sollten hier </tspan></tspan><tspan x="16279" y="5859" class="TextPosition"><tspan style="white-space:pre">getrennt werden.</tspan></tspan></tspan></text></g></g></g></g></svg>