<svg xmlns="http://www.w3.org/2000/svg" xml:space="preserve" width="210mm" height="130mm" fill-rule="evenodd" stroke-linejoin="round" stroke-width="28.222" preserveAspectRatio="xMidYMid" version="1.2" viewBox="0 0 21000 13000"><defs class="ClipPathGroup"><clipPath id="a" clipPathUnits="userSpaceOnUse"><path d="M0 0h21000v13000H0z"/></clipPath></defs><g class="SlideGroup"><g class="Slide" clip-path="url(#a)"><g class="Page"><g class="com.sun.star.drawing.CustomShape"><path fill="none" d="M999 1749h6003v753H999z" class="BoundingBox"/><path fill="#729FCF" d="M4000 2500H1000v-750h6000v750z"/><path fill="none" stroke="#3465A4" d="M4000 2500H1000v-750h6000v750z"/><text class="SVGTextShape"><tspan class="TextParagraph" font-family="Liberation Sans, sans-serif" font-size="494" font-weight="400"><tspan x="2019" y="2297" class="TextPosition"><tspan style="white-space:pre">Löschangriff Nass</tspan></tspan></tspan></text></g><g class="com.sun.star.drawing.CustomShape"><path fill="none" d="M7999 1749h9003v753H7999z" class="BoundingBox"/><path fill="#729FCF" d="M12500 2500H8000v-750h9000v750z"/><path fill="none" stroke="#3465A4" d="M12500 2500H8000v-750h9000v750z"/><text class="SVGTextShape"><tspan class="TextParagraph" font-family="Liberation Sans, sans-serif" font-size="494" font-weight="400"><tspan x="11662" y="2297" class="TextPosition"><tspan style="white-space:pre">Männer</tspan></tspan></tspan></text></g><g class="com.sun.star.drawing.CustomShape"><path fill="none" d="M999 999h6003v753H999z" class="BoundingBox"/><path fill="#FFDBB6" d="M4000 1750H1000v-750h6000v750z"/><path fill="none" stroke="#FF972F" d="M4000 1750H1000v-750h6000v750z"/><text class="SVGTextShape"><tspan class="TextParagraph" font-family="Liberation Sans, sans-serif" font-size="353" font-weight="400"><tspan x="3348" y="1496" class="TextPosition"><tspan style="white-space:pre">Disziplin</tspan></tspan></tspan></text></g><g class="com.sun.star.drawing.CustomShape"><path fill="none" d="M7999 999h9003v753H7999z" class="BoundingBox"/><path fill="#FFDBB6" d="M12500 1750H8000v-750h9000v750z"/><path fill="none" stroke="#FF972F" d="M12500 1750H8000v-750h9000v750z"/><text class="SVGTextShape"><tspan class="TextParagraph" font-family="Liberation Sans, sans-serif" font-size="353" font-weight="400"><tspan x="11107" y="1496" class="TextPosition"><tspan style="white-space:pre">Wertungsgruppen</tspan></tspan></tspan></text></g><g class="com.sun.star.drawing.CustomShape"><path fill="none" d="M7999 3999h9003v753H7999z" class="BoundingBox"/><path fill="#FFDBB6" d="M12500 4750H8000v-750h9000v750z"/><path fill="none" stroke="#FF972F" d="M12500 4750H8000v-750h9000v750z"/><text class="SVGTextShape"><tspan class="TextParagraph" font-family="Liberation Sans, sans-serif" font-size="353" font-weight="400"><tspan x="11645" y="4496" class="TextPosition"><tspan style="white-space:pre">Wertungen</tspan></tspan></tspan></text></g><g class="com.sun.star.drawing.CustomShape"><path fill="none" d="M7999 6499h9003v753H7999z" class="BoundingBox"/><path fill="#FFDBB6" d="M12500 7250H8000v-750h9000v750z"/><path fill="none" stroke="#FF972F" d="M12500 7250H8000v-750h9000v750z"/><text class="SVGTextShape"><tspan class="TextParagraph" font-family="Liberation Sans, sans-serif" font-size="353" font-weight="400"><tspan x="11622" y="6996" class="TextPosition"><tspan style="white-space:pre">Ergebnisse</tspan></tspan></tspan></text></g><g class="com.sun.star.drawing.ConnectorShape"><path fill="none" d="M3999 2499h8515v1502H3999z" class="BoundingBox"/><path fill="none" stroke="#3465A4" d="M12438 3844c-771-898-8438-219-8438-1344"/><path fill="#3465A4" d="m12513 3777-13 223-171-144z"/></g><g class="com.sun.star.drawing.ConnectorShape"><path fill="none" d="M12400 2499h201v1502h-201z" class="BoundingBox"/><path fill="none" stroke="#3465A4" d="M12500 3813V2500"/><path fill="#3465A4" d="m12600 3800-100 200-100-200z"/></g><g class="com.sun.star.drawing.ConnectorShape"><path fill="none" d="M10048 5499h2454v1752h-2454z" class="BoundingBox"/><path fill="none" stroke="#3465A4" d="M10146 7052c233-1024 2354-240 2354-1552"/><path fill="#3465A4" d="m10247 7063-122 187-77-210z"/></g><g class="com.sun.star.drawing.CustomShape"><path fill="none" d="M499 7749h5503v753H499z" class="BoundingBox"/><path fill="#FFDBB6" d="M3250 8500H500v-750h5500v750z"/><path fill="none" stroke="#FF972F" d="M3250 8500H500v-750h5500v750z"/><text class="SVGTextShape"><tspan class="TextParagraph" font-family="Liberation Sans, sans-serif" font-size="353" font-weight="400"><tspan x="2471" y="8246" class="TextPosition"><tspan style="white-space:pre">Startlisten</tspan></tspan></tspan></text></g><g class="com.sun.star.drawing.CustomShape"><path fill="none" d="M499 8499h5503v753H499z" class="BoundingBox"/><path fill="#729FCF" d="M3250 9250H500v-750h5500v750z"/><path fill="none" stroke="#3465A4" d="M3250 9250H500v-750h5500v750z"/><text class="SVGTextShape"><tspan class="TextParagraph" font-family="Liberation Sans, sans-serif" font-size="388" font-weight="400"><tspan x="1476" y="9010" class="TextPosition"><tspan style="white-space:pre">Löschangriff - Lauf 1</tspan></tspan></tspan></text></g><g class="com.sun.star.drawing.CustomShape"><path fill="none" d="M499 9249h5503v753H499z" class="BoundingBox"/><path fill="#729FCF" d="M3250 10000H500v-750h5500v750z"/><path fill="none" stroke="#3465A4" d="M3250 10000H500v-750h5500v750z"/><text class="SVGTextShape"><tspan class="TextParagraph" font-family="Liberation Sans, sans-serif" font-size="388" font-weight="400"><tspan x="1476" y="9760" class="TextPosition"><tspan style="white-space:pre">Löschangriff - Lauf 2</tspan></tspan></tspan></text></g><g class="com.sun.star.drawing.ConnectorShape"><path fill="none" d="M3150 2499h880v5252h-880z" class="BoundingBox"/><path fill="none" stroke="#3465A4" d="M3251 7536c25-4011 777-1474 777-5036"/><path fill="#3465A4" d="m3351 7550-101 200-99-200z"/></g><g class="com.sun.star.drawing.ConnectorShape"><path fill="none" d="M5999 8000h4210v1627H5999z" class="BoundingBox"/><path fill="none" stroke="#3465A4" d="M10110 8189c-155 958-1360 1436-4110 1436"/><path fill="#3465A4" d="m10009 8191 116-191 83 208z"/></g><g class="com.sun.star.drawing.ConnectorShape"><path fill="none" d="M5999 8000h8961v2377H5999z" class="BoundingBox"/><path fill="none" stroke="#3465A4" d="M14860 8189c-230 1458-2943 2186-8860 2186"/><path fill="#3465A4" d="m14759 8191 116-191 83 208z"/></g><g class="com.sun.star.drawing.ConnectorShape"><path fill="none" d="M5999 8000h4169v877H5999z" class="BoundingBox"/><path fill="none" stroke="#3465A4" d="M10077 8179c-265 464-1327 696-4077 696"/><path fill="#3465A4" d="m9974 8165 151-165 41 220z"/></g><g class="com.sun.star.drawing.CustomShape"><path fill="none" d="M7999 4749h9003v753H7999z" class="BoundingBox"/><path fill="#729FCF" d="M12500 5500H8000v-750h9000v750z"/><path fill="none" stroke="#3465A4" d="M12500 5500H8000v-750h9000v750z"/><text class="SVGTextShape"><tspan class="TextParagraph" font-family="Liberation Sans, sans-serif" font-size="423" font-weight="400"><tspan x="11296" y="5273" class="TextPosition"><tspan style="white-space:pre">LA – Männer</tspan></tspan></tspan></text></g><g class="com.sun.star.drawing.CustomShape"><path fill="none" d="M7999 7249h4253v753H7999z" class="BoundingBox"/><path fill="#729FCF" d="M10125 8000H8000v-750h4250v750z"/><path fill="none" stroke="#3465A4" d="M10125 8000H8000v-750h4250v750z"/><text class="SVGTextShape"><tspan class="TextParagraph" font-family="Liberation Sans, sans-serif" font-size="423" font-weight="400"><tspan x="8921" y="7773" class="TextPosition"><tspan style="white-space:pre">LA – Männer</tspan></tspan></tspan></text></g><g class="com.sun.star.drawing.CustomShape"><path fill="none" d="M12749 7249h4253v753h-4253z" class="BoundingBox"/><path fill="#729FCF" d="M14875 8000h-2125v-750h4250v750z"/><path fill="none" stroke="#3465A4" d="M14875 8000h-2125v-750h4250v750z"/><text class="SVGTextShape"><tspan class="TextParagraph" font-family="Liberation Sans, sans-serif" font-size="423" font-weight="400"><tspan x="13813" y="7773" class="TextPosition"><tspan style="white-space:pre">LA – Finale</tspan></tspan></tspan></text></g><g class="com.sun.star.drawing.ConnectorShape"><path fill="none" d="M12499 5499h2454v1752h-2454z" class="BoundingBox"/><path fill="none" stroke="#3465A4" d="M14854 7052c-233-1024-2354-240-2354-1552"/><path fill="#3465A4" d="m14952 7040-77 210-122-187z"/></g><g class="com.sun.star.drawing.CustomShape"><path fill="none" d="M499 9999h5503v753H499z" class="BoundingBox"/><path fill="#729FCF" d="M3250 10750H500v-750h5500v750z"/><path fill="none" stroke="#3465A4" d="M3250 10750H500v-750h5500v750z"/><text class="SVGTextShape"><tspan class="TextParagraph" font-family="Liberation Sans, sans-serif" font-size="388" font-weight="400"><tspan x="1491" y="10510" class="TextPosition"><tspan style="white-space:pre">Löschangriff - Finale</tspan></tspan></tspan></text></g></g></g></g></svg>