<svg xmlns="http://www.w3.org/2000/svg" xml:space="preserve" width="210mm" height="130mm" fill-rule="evenodd" stroke-linejoin="round" stroke-width="28.222" preserveAspectRatio="xMidYMid" version="1.2" viewBox="0 0 21000 13000"><defs class="ClipPathGroup"><clipPath id="a" clipPathUnits="userSpaceOnUse"><path d="M0 0h21000v13000H0z"/></clipPath></defs><g class="SlideGroup"><g class="Slide" clip-path="url(#a)"><g class="Page"><g class="com.sun.star.drawing.CustomShape"><path fill="none" d="M999 1749h6003v753H999z" class="BoundingBox"/><path fill="#729FCF" d="M4000 2500H1000v-750h6000v750z"/><path fill="none" stroke="#3465A4" d="M4000 2500H1000v-750h6000v750z"/><text class="SVGTextShape"><tspan class="TextParagraph" font-family="Liberation Sans, sans-serif" font-size="494" font-weight="400"><tspan x="2019" y="2297" class="TextPosition"><tspan style="white-space:pre">Löschangriff Nass</tspan></tspan></tspan></text></g><g class="com.sun.star.drawing.CustomShape"><path fill="none" d="M7999 1749h6253v753H7999z" class="BoundingBox"/><path fill="#729FCF" d="M11125 2500H8000v-750h6250v750z"/><path fill="none" stroke="#3465A4" d="M11125 2500H8000v-750h6250v750z"/><text class="SVGTextShape"><tspan class="TextParagraph" font-family="Liberation Sans, sans-serif" font-size="494" font-weight="400"><tspan x="10287" y="2297" class="TextPosition"><tspan style="white-space:pre">Männer</tspan></tspan></tspan></text></g><g class="com.sun.star.drawing.CustomShape"><path fill="none" d="M999 999h6003v753H999z" class="BoundingBox"/><path fill="#FFDBB6" d="M4000 1750H1000v-750h6000v750z"/><path fill="none" stroke="#FF972F" d="M4000 1750H1000v-750h6000v750z"/><text class="SVGTextShape"><tspan class="TextParagraph" font-family="Liberation Sans, sans-serif" font-size="353" font-weight="400"><tspan x="3348" y="1496" class="TextPosition"><tspan style="white-space:pre">Disziplin</tspan></tspan></tspan></text></g><g class="com.sun.star.drawing.CustomShape"><path fill="none" d="M7999 999h6253v753H7999z" class="BoundingBox"/><path fill="#FFDBB6" d="M11125 1750H8000v-750h6250v750z"/><path fill="none" stroke="#FF972F" d="M11125 1750H8000v-750h6250v750z"/><text class="SVGTextShape"><tspan class="TextParagraph" font-family="Liberation Sans, sans-serif" font-size="353" font-weight="400"><tspan x="9732" y="1496" class="TextPosition"><tspan style="white-space:pre">Wertungsgruppen</tspan></tspan></tspan></text></g><g class="com.sun.star.drawing.CustomShape"><path fill="none" d="M7999 3999h6253v753H7999z" class="BoundingBox"/><path fill="#FFDBB6" d="M11125 4750H8000v-750h6250v750z"/><path fill="none" stroke="#FF972F" d="M11125 4750H8000v-750h6250v750z"/><text class="SVGTextShape"><tspan class="TextParagraph" font-family="Liberation Sans, sans-serif" font-size="353" font-weight="400"><tspan x="10270" y="4496" class="TextPosition"><tspan style="white-space:pre">Wertungen</tspan></tspan></tspan></text></g><g class="com.sun.star.drawing.CustomShape"><path fill="none" d="M7999 6499h9503v753H7999z" class="BoundingBox"/><path fill="#FFDBB6" d="M12750 7250H8000v-750h9500v750z"/><path fill="none" stroke="#FF972F" d="M12750 7250H8000v-750h9500v750z"/><text class="SVGTextShape"><tspan class="TextParagraph" font-family="Liberation Sans, sans-serif" font-size="353" font-weight="400"><tspan x="11872" y="6996" class="TextPosition"><tspan style="white-space:pre">Ergebnisse</tspan></tspan></tspan></text></g><g class="com.sun.star.drawing.ConnectorShape"><path fill="none" d="M3999 2499h7149v1502H3999z" class="BoundingBox"/><path fill="none" stroke="#3465A4" d="M11066 3835c-685-885-7066-210-7066-1335"/><path fill="#3465A4" d="m11146 3777-21 223-165-151z"/></g><g class="com.sun.star.drawing.ConnectorShape"><path fill="none" d="M11025 2499h201v1502h-201z" class="BoundingBox"/><path fill="none" stroke="#3465A4" d="M11125 3813V2500"/><path fill="#3465A4" d="m11225 3800-100 200-100-200z"/></g><g class="com.sun.star.drawing.ConnectorShape"><path fill="none" d="M9415 5499h1712v1752H9415z" class="BoundingBox"/><path fill="none" stroke="#3465A4" d="M9515 7051c161-1023 1610-239 1610-1551"/><path fill="#3465A4" d="m9615 7058-115 192-84-207z"/></g><g class="com.sun.star.drawing.CustomShape"><path fill="none" d="M499 7749h5503v753H499z" class="BoundingBox"/><path fill="#FFDBB6" d="M3250 8500H500v-750h5500v750z"/><path fill="none" stroke="#FF972F" d="M3250 8500H500v-750h5500v750z"/><text class="SVGTextShape"><tspan class="TextParagraph" font-family="Liberation Sans, sans-serif" font-size="353" font-weight="400"><tspan x="2471" y="8246" class="TextPosition"><tspan style="white-space:pre">Startlisten</tspan></tspan></tspan></text></g><g class="com.sun.star.drawing.CustomShape"><path fill="none" d="M499 8499h5503v753H499z" class="BoundingBox"/><path fill="#729FCF" d="M3250 9250H500v-750h5500v750z"/><path fill="none" stroke="#3465A4" d="M3250 9250H500v-750h5500v750z"/><text class="SVGTextShape"><tspan class="TextParagraph" font-family="Liberation Sans, sans-serif" font-size="388" font-weight="400"><tspan x="1476" y="9010" class="TextPosition"><tspan style="white-space:pre">Löschangriff - Lauf 1</tspan></tspan></tspan></text></g><g class="com.sun.star.drawing.CustomShape"><path fill="none" d="M499 9249h5503v753H499z" class="BoundingBox"/><path fill="#729FCF" d="M3250 10000H500v-750h5500v750z"/><path fill="none" stroke="#3465A4" d="M3250 10000H500v-750h5500v750z"/><text class="SVGTextShape"><tspan class="TextParagraph" font-family="Liberation Sans, sans-serif" font-size="388" font-weight="400"><tspan x="1476" y="9760" class="TextPosition"><tspan style="white-space:pre">Löschangriff - Lauf 2</tspan></tspan></tspan></text></g><g class="com.sun.star.drawing.ConnectorShape"><path fill="none" d="M3150 2499h880v5252h-880z" class="BoundingBox"/><path fill="none" stroke="#3465A4" d="M3251 7536c25-4011 777-1474 777-5036"/><path fill="#3465A4" d="m3351 7550-101 200-99-200z"/></g><g class="com.sun.star.drawing.ConnectorShape"><path fill="none" d="M5999 8000h3588v1627H5999z" class="BoundingBox"/><path fill="none" stroke="#3465A4" d="M9487 8189c-131 958-1153 1436-3487 1436"/><path fill="#3465A4" d="m9386 8192 114-192 85 207z"/></g><g class="com.sun.star.drawing.ConnectorShape"><path fill="none" d="M5999 8000h3552v877H5999z" class="BoundingBox"/><path fill="none" stroke="#3465A4" d="M9458 8181c-226 463-1124 694-3458 694"/><path fill="#3465A4" d="m9355 8170 145-170 49 218z"/></g><g class="com.sun.star.drawing.CustomShape"><path fill="none" d="M7999 4749h6253v753H7999z" class="BoundingBox"/><path fill="#729FCF" d="M11125 5500H8000v-750h6250v750z"/><path fill="none" stroke="#3465A4" d="M11125 5500H8000v-750h6250v750z"/><text class="SVGTextShape"><tspan class="TextParagraph" font-family="Liberation Sans, sans-serif" font-size="423" font-weight="400"><tspan x="9921" y="5273" class="TextPosition"><tspan style="white-space:pre">LA – Männer</tspan></tspan></tspan></text></g><g class="com.sun.star.drawing.CustomShape"><path fill="none" d="M7999 7249h3003v753H7999z" class="BoundingBox"/><path fill="#729FCF" d="M9500 8000H8000v-750h3000v750z"/><path fill="none" stroke="#3465A4" d="M9500 8000H8000v-750h3000v750z"/><text class="SVGTextShape"><tspan class="TextParagraph" font-family="Liberation Sans, sans-serif" font-size="423" font-weight="400"><tspan x="8296" y="7773" class="TextPosition"><tspan style="white-space:pre">LA – Männer</tspan></tspan></tspan></text></g><g class="com.sun.star.drawing.CustomShape"><path fill="none" d="M11249 7249h3003v753h-3003z" class="BoundingBox"/><path fill="#729FCF" d="M12750 8000h-1500v-750h3000v750z"/><path fill="none" stroke="#3465A4" d="M12750 8000h-1500v-750h3000v750z"/><text class="SVGTextShape"><tspan class="TextParagraph" font-family="Liberation Sans, sans-serif" font-size="423" font-weight="400"><tspan x="11876" y="7773" class="TextPosition"><tspan style="white-space:pre">LA – Cup</tspan></tspan></tspan></text></g><g class="com.sun.star.drawing.ConnectorShape"><path fill="none" d="M11124 5499h1712v1752h-1712z" class="BoundingBox"/><path fill="none" stroke="#3465A4" d="M12735 7051c-161-1023-1610-239-1610-1551"/><path fill="#3465A4" d="m12834 7043-84 207-115-192z"/></g><g class="com.sun.star.drawing.CustomShape"><path fill="none" d="M12749 8999h7754v3504h-7754z" class="BoundingBox"/><path fill="#A7074B" d="M20501 10751c0 307-179 609-519 875s-830 487-1419 640c-589 154-1257 235-1937 235-681 0-1349-81-1938-235-589-153-1079-374-1419-640s-519-568-519-875c0-308 179-610 519-876s830-487 1419-640c589-154 1257-235 1937-235 681 0 1349 81 1938 235 589 153 1079 374 1419 640s519 568 519 875z"/><path fill="none" stroke="#3465A4" d="M20501 10751c0 307-179 609-519 875s-830 487-1419 640c-589 154-1257 235-1937 235-681 0-1349-81-1938-235-589-153-1079-374-1419-640s-519-568-519-875c0-308 179-610 519-876s830-487 1419-640c589-154 1257-235 1937-235 681 0 1349 81 1938 235 589 153 1079 374 1419 640s519 568 519 875z"/><text class="SVGTextShape"><tspan class="TextParagraph" font-family="Liberation Sans, sans-serif" font-size="635" font-weight="400"><tspan x="14135" y="10971" class="TextPosition"><tspan fill="#FFF" style="white-space:pre">Alle</tspan></tspan></tspan></text></g><g class="com.sun.star.drawing.CustomShape"><path fill="none" d="M16249 9499h4254v2504h-4254z" class="BoundingBox"/><path fill="#FF3838" d="M20501 10750c0 220-98 436-285 626-186 190-455 348-778 457-323 110-689 168-1062 168-374 0-740-58-1063-168-323-109-592-267-778-457-187-190-285-406-285-626 0-219 98-435 285-625 186-190 455-348 778-457 323-110 689-168 1063-168 373 0 739 58 1062 168 323 109 592 267 778 457 187 190 285 406 285 625"/><path fill="none" stroke="#3465A4" d="M20501 10750c0 220-98 436-285 626-186 190-455 348-778 457-323 110-689 168-1062 168-374 0-740-58-1063-168-323-109-592-267-778-457-187-190-285-406-285-626 0-219 98-435 285-625 186-190 455-348 778-457 323-110 689-168 1063-168 373 0 739 58 1062 168 323 109 592 267 778 457 187 190 285 406 285 625Z"/><text class="SVGTextShape"><tspan class="TextParagraph" font-family="Liberation Sans, sans-serif" font-size="635" font-weight="400"><tspan x="17795" y="10971" class="TextPosition"><tspan fill="#FFF" style="white-space:pre">Cup</tspan></tspan></tspan></text></g><g class="com.sun.star.drawing.CustomShape"><path fill="none" d="M13601 3999h5152v3455h-5152z" class="BoundingBox"/><path fill="#FFF5CE" d="M15206 4000h1c-124 0-246 8-354 22-107 15-196 36-258 61s-95 54-95 83v669c0 29 33 58 95 83s151 46 258 61c108 14 230 22 354 22l-1605 2451 2663-2451h1779c124 0 246-8 354-22 107-15 196-36 258-61s95-54 95-83v-669c0-29-33-58-95-83s-151-46-258-61c-108-14-230-22-354-22h-2838"/><path fill="none" stroke="#3465A4" d="M15206 4000h1c-124 0-246 8-354 22-107 15-196 36-258 61s-95 54-95 83v669c0 29 33 58 95 83s151 46 258 61c108 14 230 22 354 22l-1605 2451 2663-2451h1779c124 0 246-8 354-22 107-15 196-36 258-61s95-54 95-83v-669c0-29-33-58-95-83s-151-46-258-61c-108-14-230-22-354-22h-2838Z"/><text class="SVGTextShape"><tspan class="TextParagraph" font-family="Liberation Sans, sans-serif" font-size="353" font-weight="400"><tspan x="14998" y="4621" class="TextPosition"><tspan style="white-space:pre">Kennzeichnung: Cup</tspan></tspan></tspan></text></g><g class="com.sun.star.drawing.CustomShape"><path fill="none" d="M14749 8999h3504v2504h-3504z" class="BoundingBox"/><path fill="#729FCF" fill-opacity=".631" stroke="#FFF" stroke-opacity=".631" d="M18251 10251c0 219-81 435-235 625-153 190-374 348-640 457-266 110-568 168-875 168-308 0-610-58-876-168-266-109-487-267-640-457-154-190-235-406-235-625 0-220 81-436 235-626 153-190 374-348 640-457 266-110 568-168 876-168 307 0 609 58 875 168 266 109 487 267 640 457 154 190 235 406 235 625z"/><path fill="none" stroke="#3465A4" d="M18251 10251c0 219-81 435-235 625-153 190-374 348-640 457-266 110-568 168-875 168-308 0-610-58-876-168-266-109-487-267-640-457-154-190-235-406-235-625 0-220 81-436 235-626 153-190 374-348 640-457 266-110 568-168 876-168 307 0 609 58 875 168 266 109 487 267 640 457 154 190 235 406 235 625z"/><text class="SVGTextShape"><tspan class="TextParagraph" font-family="Liberation Sans, sans-serif" font-size="635" font-weight="400"><tspan x="15778" y="10471" class="TextPosition"><tspan fill="#FFF" style="white-space:pre">Kreis</tspan></tspan></tspan></text></g><g class="com.sun.star.drawing.CustomShape"><path fill="none" d="M14499 7249h3003v753h-3003z" class="BoundingBox"/><path fill="#729FCF" d="M16000 8000h-1500v-750h3000v750z"/><path fill="none" stroke="#3465A4" d="M16000 8000h-1500v-750h3000v750z"/><text class="SVGTextShape"><tspan class="TextParagraph" font-family="Liberation Sans, sans-serif" font-size="423" font-weight="400"><tspan x="15033" y="7773" class="TextPosition"><tspan style="white-space:pre">LA – Kreis</tspan></tspan></tspan></text></g><g class="com.sun.star.drawing.CustomShape"><path fill="none" d="M16173 5249h4580v2037h-4580z" class="BoundingBox"/><path fill="#FFF5CE" d="M17206 5250h1c-124 0-246 8-354 22-107 15-196 36-258 61s-95 54-95 83v669c0 29 33 58 95 83s151 46 258 61c108 14 230 22 354 22l-1033 1033 2091-1033h1779c124 0 246-8 354-22 107-15 196-36 258-61s95-54 95-83v-669c0-29-33-58-95-83s-151-46-258-61c-108-14-230-22-354-22h-2838"/><path fill="none" stroke="#3465A4" d="M17206 5250h1c-124 0-246 8-354 22-107 15-196 36-258 61s-95 54-95 83v669c0 29 33 58 95 83s151 46 258 61c108 14 230 22 354 22l-1033 1033 2091-1033h1779c124 0 246-8 354-22 107-15 196-36 258-61s95-54 95-83v-669c0-29-33-58-95-83s-151-46-258-61c-108-14-230-22-354-22h-2838Z"/><text class="SVGTextShape"><tspan class="TextParagraph" font-family="Liberation Sans, sans-serif" font-size="353" font-weight="400"><tspan x="16919" y="5871" class="TextPosition"><tspan style="white-space:pre">Kennzeichnung: Kreis</tspan></tspan></tspan></text></g><g class="com.sun.star.drawing.ConnectorShape"><path fill="none" d="M11167 5499h4908v1752h-4908z" class="BoundingBox"/><path fill="none" stroke="#3465A4" d="M15976 7055c-365-1423-4808-618-4808-1555"/><path fill="#3465A4" d="m16073 7039-73 211-125-185z"/></g><g class="com.sun.star.drawing.ConnectorShape"><path fill="none" d="M5999 8000h10062v1627H5999z" class="BoundingBox"/><path fill="none" stroke="#3465A4" d="M15967 8182c-361 962-3300 1443-9967 1443"/><path fill="#3465A4" d="m15863 8177 137-177 60 215z"/></g><g class="com.sun.star.drawing.ConnectorShape"><path fill="none" d="M5999 8000h6825v1627H5999z" class="BoundingBox"/><path fill="none" stroke="#3465A4" d="M12726 8186c-249 960-2226 1439-6726 1439"/><path fill="#3465A4" d="m12624 8185 126-185 72 212z"/></g><g class="com.sun.star.drawing.ConnectorShape"><path fill="none" d="M5999 8000h10002v877H5999z" class="BoundingBox"/><path fill="none" stroke="#3465A4" d="M15908 8160c-580 477-3241 715-9908 715"/><path fill="#3465A4" d="m15810 8118 190-118-19 223z"/></g><g class="com.sun.star.drawing.ConnectorShape"><path fill="none" d="M5999 8000h6763v877H5999z" class="BoundingBox"/><path fill="none" stroke="#3465A4" d="M12679 8171c-415 470-2179 704-6679 704"/><path fill="#3465A4" d="m12578 8143 172-143 11 223z"/></g><g class="com.sun.star.drawing.CustomShape"><path fill="none" d="M13750 1249h6003v1504h-6003z" class="BoundingBox"/><path fill="#FFF5CE" d="M15998 1250c-131 0-260 12-374 33-114 22-208 54-274 92-65 38-100 81-100 124v628l-1499 72 1499 302v1c0 43 35 86 100 124 66 38 160 70 274 92 114 21 243 33 374 33h3005c131 0 260-12 374-33 114-22 208-54 274-92 65-38 100-81 100-124V1499c0-43-35-86-100-124-66-38-160-70-274-92-114-21-243-33-374-33h-3005"/><path fill="none" stroke="#3465A4" d="M15998 1250c-131 0-260 12-374 33-114 22-208 54-274 92-65 38-100 81-100 124v628l-1499 72 1499 302v1c0 43 35 86 100 124 66 38 160 70 274 92 114 21 243 33 374 33h3005c131 0 260-12 374-33 114-22 208-54 274-92 65-38 100-81 100-124V1499c0-43-35-86-100-124-66-38-160-70-274-92-114-21-243-33-374-33h-3005Z"/><text class="SVGTextShape"><tspan class="TextParagraph" font-family="Liberation Sans, sans-serif" font-size="353" font-weight="400"><tspan x="16800" y="1727" class="TextPosition"><tspan style="white-space:pre">Mögliche </tspan></tspan><tspan x="16048" y="2121" class="TextPosition"><tspan style="white-space:pre">Kennzeichnungen:</tspan></tspan><tspan x="16681" y="2515" class="TextPosition"><tspan style="white-space:pre">Cup, Kreis</tspan></tspan></tspan></text></g></g></g></g></svg>