<svg xmlns="http://www.w3.org/2000/svg" xml:space="preserve" width="210mm" height="130mm" fill-rule="evenodd" stroke-linejoin="round" stroke-width="28.222" preserveAspectRatio="xMidYMid" version="1.2" viewBox="0 0 21000 13000"><defs class="ClipPathGroup"><clipPath id="a" clipPathUnits="userSpaceOnUse"><path d="M0 0h21000v13000H0z"/></clipPath></defs><g class="SlideGroup"><g class="Slide" clip-path="url(#a)"><g class="Page"><g class="com.sun.star.drawing.CustomShape"><path fill="none" d="M999 1749h6003v753H999z" class="BoundingBox"/><path fill="#729FCF" d="M4000 2500H1000v-750h6000v750z"/><path fill="none" stroke="#3465A4" d="M4000 2500H1000v-750h6000v750z"/><text class="SVGTextShape"><tspan class="TextParagraph" font-family="Liberation Sans, sans-serif" font-size="494" font-weight="400"><tspan x="2019" y="2297" class="TextPosition"><tspan style="white-space:pre">Löschangriff Nass</tspan></tspan></tspan></text></g><g class="com.sun.star.drawing.CustomShape"><path fill="none" d="M7999 1749h4503v753H7999z" class="BoundingBox"/><path fill="#729FCF" d="M10250 2500H8000v-750h4500v750z"/><path fill="none" stroke="#3465A4" d="M10250 2500H8000v-750h4500v750z"/><text class="SVGTextShape"><tspan class="TextParagraph" font-family="Liberation Sans, sans-serif" font-size="494" font-weight="400"><tspan x="9412" y="2297" class="TextPosition"><tspan style="white-space:pre">Männer</tspan></tspan></tspan></text></g><g class="com.sun.star.drawing.CustomShape"><path fill="none" d="M999 999h6003v753H999z" class="BoundingBox"/><path fill="#FFDBB6" d="M4000 1750H1000v-750h6000v750z"/><path fill="none" stroke="#FF972F" d="M4000 1750H1000v-750h6000v750z"/><text class="SVGTextShape"><tspan class="TextParagraph" font-family="Liberation Sans, sans-serif" font-size="353" font-weight="400"><tspan x="3348" y="1496" class="TextPosition"><tspan style="white-space:pre">Disziplin</tspan></tspan></tspan></text></g><g class="com.sun.star.drawing.CustomShape"><path fill="none" d="M7999 999h9253v753H7999z" class="BoundingBox"/><path fill="#FFDBB6" d="M12625 1750H8000v-750h9250v750z"/><path fill="none" stroke="#FF972F" d="M12625 1750H8000v-750h9250v750z"/><text class="SVGTextShape"><tspan class="TextParagraph" font-family="Liberation Sans, sans-serif" font-size="353" font-weight="400"><tspan x="11232" y="1496" class="TextPosition"><tspan style="white-space:pre">Wertungsgruppen</tspan></tspan></tspan></text></g><g class="com.sun.star.drawing.CustomShape"><path fill="none" d="M12749 1749h4503v753h-4503z" class="BoundingBox"/><path fill="#729FCF" d="M15000 2500h-2250v-750h4500v750z"/><path fill="none" stroke="#3465A4" d="M15000 2500h-2250v-750h4500v750z"/><text class="SVGTextShape"><tspan class="TextParagraph" font-family="Liberation Sans, sans-serif" font-size="494" font-weight="400"><tspan x="14217" y="2297" class="TextPosition"><tspan style="white-space:pre">Frauen</tspan></tspan></tspan></text></g><g class="com.sun.star.drawing.CustomShape"><path fill="none" d="M8249 4749h5503v753H8249z" class="BoundingBox"/><path fill="#729FCF" d="M11000 5500H8250v-750h5500v750z"/><path fill="none" stroke="#3465A4" d="M11000 5500H8250v-750h5500v750z"/><text class="SVGTextShape"><tspan class="TextParagraph" font-family="Liberation Sans, sans-serif" font-size="494" font-weight="400"><tspan x="8539" y="5297" class="TextPosition"><tspan style="white-space:pre">Löschangriff – Männer</tspan></tspan></tspan></text></g><g class="com.sun.star.drawing.CustomShape"><path fill="none" d="M14249 4749h5503v753h-5503z" class="BoundingBox"/><path fill="#729FCF" d="M17000 5500h-2750v-750h5500v750z"/><path fill="none" stroke="#3465A4" d="M17000 5500h-2750v-750h5500v750z"/><text class="SVGTextShape"><tspan class="TextParagraph" font-family="Liberation Sans, sans-serif" font-size="494" font-weight="400"><tspan x="14594" y="5297" class="TextPosition"><tspan style="white-space:pre">Löschangriff – Frauen</tspan></tspan></tspan></text></g><g class="com.sun.star.drawing.CustomShape"><path fill="none" d="M8249 3999h11503v753H8249z" class="BoundingBox"/><path fill="#FFDBB6" d="M14000 4750H8250v-750h11500v750z"/><path fill="none" stroke="#FF972F" d="M14000 4750H8250v-750h11500v750z"/><text class="SVGTextShape"><tspan class="TextParagraph" font-family="Liberation Sans, sans-serif" font-size="353" font-weight="400"><tspan x="13145" y="4496" class="TextPosition"><tspan style="white-space:pre">Wertungen</tspan></tspan></tspan></text></g><g class="com.sun.star.drawing.CustomShape"><path fill="none" d="M8249 7249h5503v753H8249z" class="BoundingBox"/><path fill="#729FCF" d="M11000 8000H8250v-750h5500v750z"/><path fill="none" stroke="#3465A4" d="M11000 8000H8250v-750h5500v750z"/><text class="SVGTextShape"><tspan class="TextParagraph" font-family="Liberation Sans, sans-serif" font-size="494" font-weight="400"><tspan x="8539" y="7797" class="TextPosition"><tspan style="white-space:pre">Löschangriff – Männer</tspan></tspan></tspan></text></g><g class="com.sun.star.drawing.CustomShape"><path fill="none" d="M14249 7249h5503v753h-5503z" class="BoundingBox"/><path fill="#729FCF" d="M17000 8000h-2750v-750h5500v750z"/><path fill="none" stroke="#3465A4" d="M17000 8000h-2750v-750h5500v750z"/><text class="SVGTextShape"><tspan class="TextParagraph" font-family="Liberation Sans, sans-serif" font-size="494" font-weight="400"><tspan x="14594" y="7797" class="TextPosition"><tspan style="white-space:pre">Löschangriff – Frauen</tspan></tspan></tspan></text></g><g class="com.sun.star.drawing.CustomShape"><path fill="none" d="M8249 6499h11503v753H8249z" class="BoundingBox"/><path fill="#FFDBB6" d="M14000 7250H8250v-750h11500v750z"/><path fill="none" stroke="#FF972F" d="M14000 7250H8250v-750h11500v750z"/><text class="SVGTextShape"><tspan class="TextParagraph" font-family="Liberation Sans, sans-serif" font-size="353" font-weight="400"><tspan x="13122" y="6996" class="TextPosition"><tspan style="white-space:pre">Ergebnisse</tspan></tspan></tspan></text></g><g class="com.sun.star.drawing.ConnectorShape"><path fill="none" d="M10249 2499h848v2252h-848z" class="BoundingBox"/><path fill="none" stroke="#3465A4" d="M10996 4545c-60-1389-746-358-746-2045"/><path fill="#3465A4" d="m11096 4548-96 202-104-198z"/></g><g class="com.sun.star.drawing.ConnectorShape"><path fill="none" d="M3999 2499h7065v2252H3999z" class="BoundingBox"/><path fill="none" stroke="#3465A4" d="M10968 4562c-513-1414-6968-375-6968-2062"/><path fill="#3465A4" d="m11062 4535-62 215-135-179z"/></g><g class="com.sun.star.drawing.ConnectorShape"><path fill="none" d="M4027 2499h13033v2252H4027z" class="BoundingBox"/><path fill="none" stroke="#3465A4" d="M16968 4578c-712-1827-12940-766-12940-2078"/><path fill="#3465A4" d="m17058 4534-58 216-138-176z"/></g><g class="com.sun.star.drawing.ConnectorShape"><path fill="none" d="M10900 5499h201v1752h-201z" class="BoundingBox"/><path fill="none" stroke="#3465A4" d="M11000 7063V5500"/><path fill="#3465A4" d="m11100 7050-100 200-100-200z"/></g><g class="com.sun.star.drawing.ConnectorShape"><path fill="none" d="M14999 2499h2091v2252h-2091z" class="BoundingBox"/><path fill="none" stroke="#3465A4" d="M16989 4546c-158-1391-1989-359-1989-2046"/><path fill="#3465A4" d="m17088 4545-88 205-111-194z"/></g><g class="com.sun.star.drawing.ConnectorShape"><path fill="none" d="M16900 5499h201v1752h-201z" class="BoundingBox"/><path fill="none" stroke="#3465A4" d="M17000 7063V5500"/><path fill="#3465A4" d="m17100 7050-100 200-100-200z"/></g><g class="com.sun.star.drawing.CustomShape"><path fill="none" d="M1749 7749h5503v753H1749z" class="BoundingBox"/><path fill="#FFDBB6" d="M4500 8500H1750v-750h5500v750z"/><path fill="none" stroke="#FF972F" d="M4500 8500H1750v-750h5500v750z"/><text class="SVGTextShape"><tspan class="TextParagraph" font-family="Liberation Sans, sans-serif" font-size="353" font-weight="400"><tspan x="3721" y="8246" class="TextPosition"><tspan style="white-space:pre">Startlisten</tspan></tspan></tspan></text></g><g class="com.sun.star.drawing.CustomShape"><path fill="none" d="M1749 8499h5503v753H1749z" class="BoundingBox"/><path fill="#729FCF" d="M4500 9250H1750v-750h5500v750z"/><path fill="none" stroke="#3465A4" d="M4500 9250H1750v-750h5500v750z"/><text class="SVGTextShape"><tspan class="TextParagraph" font-family="Liberation Sans, sans-serif" font-size="494" font-weight="400"><tspan x="2187" y="9047" class="TextPosition"><tspan style="white-space:pre">Löschangriff – Lauf 1</tspan></tspan></tspan></text></g><g class="com.sun.star.drawing.CustomShape"><path fill="none" d="M1749 9249h5503v753H1749z" class="BoundingBox"/><path fill="#729FCF" d="M4500 10000H1750v-750h5500v750z"/><path fill="none" stroke="#3465A4" d="M4500 10000H1750v-750h5500v750z"/><text class="SVGTextShape"><tspan class="TextParagraph" font-family="Liberation Sans, sans-serif" font-size="494" font-weight="400"><tspan x="2187" y="9797" class="TextPosition"><tspan style="white-space:pre">Löschangriff – Lauf 2</tspan></tspan></tspan></text></g><g class="com.sun.star.drawing.ConnectorShape"><path fill="none" d="M4027 2499h574v5252h-574z" class="BoundingBox"/><path fill="none" stroke="#3465A4" d="M4500 7536c-16-4011-472-1474-472-5036"/><path fill="#3465A4" d="m4600 7550-100 200-100-200z"/></g><g class="com.sun.star.drawing.ConnectorShape"><path fill="none" d="M7249 8000h9813v1627H7249z" class="BoundingBox"/><path fill="none" stroke="#3465A4" d="M16968 8182c-353 963-3218 1443-9718 1443"/><path fill="#3465A4" d="m16864 8178 136-178 61 215z"/></g><g class="com.sun.star.drawing.ConnectorShape"><path fill="none" d="M7249 8000h3798v877H7249z" class="BoundingBox"/><path fill="none" stroke="#3465A4" d="M10956 8180c-242 464-1206 695-3706 695"/><path fill="#3465A4" d="m10852 8168 148-168 46 219z"/></g><g class="com.sun.star.drawing.ConnectorShape"><path fill="none" d="M7249 8000h3837v1627H7249z" class="BoundingBox"/><path fill="none" stroke="#3465A4" d="M10987 8189c-141 958-1237 1436-3737 1436"/><path fill="#3465A4" d="m10885 8192 115-192 84 207z"/></g><g class="com.sun.star.drawing.ConnectorShape"><path fill="none" d="M7249 8000h9752v877H7249z" class="BoundingBox"/><path fill="none" stroke="#3465A4" d="M16909 8161c-569 477-3159 714-9659 714"/><path fill="#3465A4" d="m16811 8120 189-120-17 223z"/></g></g></g></g></svg>