<svg xmlns="http://www.w3.org/2000/svg" xml:space="preserve" width="210mm" height="130mm" fill-rule="evenodd" stroke-linejoin="round" stroke-width="28.222" preserveAspectRatio="xMidYMid" version="1.2" viewBox="0 0 21000 13000"><defs class="ClipPathGroup"><clipPath id="a" clipPathUnits="userSpaceOnUse"><path d="M0 0h21000v13000H0z"/></clipPath></defs><g class="SlideGroup"><g class="Slide" clip-path="url(#a)"><g class="Page"><g class="com.sun.star.drawing.CustomShape"><path fill="none" d="M999 1749h6003v753H999z" class="BoundingBox"/><path fill="#729FCF" d="M4000 2500H1000v-750h6000v750z"/><path fill="none" stroke="#3465A4" d="M4000 2500H1000v-750h6000v750z"/><text class="SVGTextShape"><tspan class="TextParagraph" font-family="Liberation Sans, sans-serif" font-size="494" font-weight="400"><tspan x="2019" y="2297" class="TextPosition"><tspan style="white-space:pre">Löschangriff Nass</tspan></tspan></tspan></text></g><g class="com.sun.star.drawing.CustomShape"><path fill="none" d="M7999 1749h3253v753H7999z" class="BoundingBox"/><path fill="#729FCF" d="M9625 2500H8000v-750h3250v750z"/><path fill="none" stroke="#3465A4" d="M9625 2500H8000v-750h3250v750z"/><text class="SVGTextShape"><tspan class="TextParagraph" font-family="Liberation Sans, sans-serif" font-size="494" font-weight="400"><tspan x="8787" y="2297" class="TextPosition"><tspan style="white-space:pre">Männer</tspan></tspan></tspan></text></g><g class="com.sun.star.drawing.CustomShape"><path fill="none" d="M999 999h6003v753H999z" class="BoundingBox"/><path fill="#FFDBB6" d="M4000 1750H1000v-750h6000v750z"/><path fill="none" stroke="#FF972F" d="M4000 1750H1000v-750h6000v750z"/><text class="SVGTextShape"><tspan class="TextParagraph" font-family="Liberation Sans, sans-serif" font-size="353" font-weight="400"><tspan x="3348" y="1496" class="TextPosition"><tspan style="white-space:pre">Disziplin</tspan></tspan></tspan></text></g><g class="com.sun.star.drawing.CustomShape"><path fill="none" d="M7999 999h10753v753H7999z" class="BoundingBox"/><path fill="#FFDBB6" d="M13375 1750H8000v-750h10750v750z"/><path fill="none" stroke="#FF972F" d="M13375 1750H8000v-750h10750v750z"/><text class="SVGTextShape"><tspan class="TextParagraph" font-family="Liberation Sans, sans-serif" font-size="353" font-weight="400"><tspan x="11982" y="1496" class="TextPosition"><tspan style="white-space:pre">Wertungsgruppen</tspan></tspan></tspan></text></g><g class="com.sun.star.drawing.CustomShape"><path fill="none" d="M11749 1749h3253v753h-3253z" class="BoundingBox"/><path fill="#729FCF" d="M13375 2500h-1625v-750h3250v750z"/><path fill="none" stroke="#3465A4" d="M13375 2500h-1625v-750h3250v750z"/><text class="SVGTextShape"><tspan class="TextParagraph" font-family="Liberation Sans, sans-serif" font-size="494" font-weight="400"><tspan x="12592" y="2297" class="TextPosition"><tspan style="white-space:pre">Frauen</tspan></tspan></tspan></text></g><g class="com.sun.star.drawing.CustomShape"><path fill="none" d="M6499 4749h3253v753H6499z" class="BoundingBox"/><path fill="#729FCF" d="M8125 5500H6500v-750h3250v750z"/><path fill="none" stroke="#3465A4" d="M8125 5500H6500v-750h3250v750z"/><text class="SVGTextShape"><tspan class="TextParagraph" font-family="Liberation Sans, sans-serif" font-size="423" font-weight="400"><tspan x="6804" y="5273" class="TextPosition"><tspan style="white-space:pre">DIN – Männer</tspan></tspan></tspan></text></g><g class="com.sun.star.drawing.CustomShape"><path fill="none" d="M13499 4749h3253v753h-3253z" class="BoundingBox"/><path fill="#729FCF" d="M15125 5500h-1625v-750h3250v750z"/><path fill="none" stroke="#3465A4" d="M15125 5500h-1625v-750h3250v750z"/><text class="SVGTextShape"><tspan class="TextParagraph" font-family="Liberation Sans, sans-serif" font-size="423" font-weight="400"><tspan x="13967" y="5273" class="TextPosition"><tspan style="white-space:pre">LA – Frauen</tspan></tspan></tspan></text></g><g class="com.sun.star.drawing.CustomShape"><path fill="none" d="M6499 3999h13753v753H6499z" class="BoundingBox"/><path fill="#FFDBB6" d="M13375 4750H6500v-750h13750v750z"/><path fill="none" stroke="#FF972F" d="M13375 4750H6500v-750h13750v750z"/><text class="SVGTextShape"><tspan class="TextParagraph" font-family="Liberation Sans, sans-serif" font-size="353" font-weight="400"><tspan x="12520" y="4496" class="TextPosition"><tspan style="white-space:pre">Wertungen</tspan></tspan></tspan></text></g><g class="com.sun.star.drawing.CustomShape"><path fill="none" d="M6499 6499h13753v753H6499z" class="BoundingBox"/><path fill="#FFDBB6" d="M13375 7250H6500v-750h13750v750z"/><path fill="none" stroke="#FF972F" d="M13375 7250H6500v-750h13750v750z"/><text class="SVGTextShape"><tspan class="TextParagraph" font-family="Liberation Sans, sans-serif" font-size="353" font-weight="400"><tspan x="12497" y="6996" class="TextPosition"><tspan style="white-space:pre">Ergebnisse</tspan></tspan></tspan></text></g><g class="com.sun.star.drawing.ConnectorShape"><path fill="none" d="M8033 2499h1594v2252H8033z" class="BoundingBox"/><path fill="none" stroke="#3465A4" d="M8133 4545c120-1390 1492-358 1492-2045"/><path fill="#3465A4" d="m8234 4555-109 195-91-204z"/></g><g class="com.sun.star.drawing.ConnectorShape"><path fill="none" d="M3999 2499h4204v2252H3999z" class="BoundingBox"/><path fill="none" stroke="#3465A4" d="M8104 4551c-320-1398-4104-364-4104-2051"/><path fill="#3465A4" d="m8201 4540-76 210-122-187z"/></g><g class="com.sun.star.drawing.ConnectorShape"><path fill="none" d="M4027 2499h11162v2252H4027z" class="BoundingBox"/><path fill="none" stroke="#3465A4" d="M15095 4570c-635-1816-11067-758-11067-2070"/><path fill="#3465A4" d="m15188 4535-63 215-134-179z"/></g><g class="com.sun.star.drawing.ConnectorShape"><path fill="none" d="M11525 5499h201v1752h-201z" class="BoundingBox"/><path fill="none" stroke="#3465A4" d="M11625 7063V5500"/><path fill="#3465A4" d="m11725 7050-100 200-100-200z"/></g><g class="com.sun.star.drawing.ConnectorShape"><path fill="none" d="M13374 2499h1842v2252h-1842z" class="BoundingBox"/><path fill="none" stroke="#3465A4" d="M15115 4546c-139-1391-1740-359-1740-2046"/><path fill="#3465A4" d="m15215 4545-90 205-110-195z"/></g><g class="com.sun.star.drawing.ConnectorShape"><path fill="none" d="M15025 5499h201v1752h-201z" class="BoundingBox"/><path fill="none" stroke="#3465A4" d="M15125 7063V5500"/><path fill="#3465A4" d="m15225 7050-100 200-100-200z"/></g><g class="com.sun.star.drawing.CustomShape"><path fill="none" d="M499 7749h5503v753H499z" class="BoundingBox"/><path fill="#FFDBB6" d="M3250 8500H500v-750h5500v750z"/><path fill="none" stroke="#FF972F" d="M3250 8500H500v-750h5500v750z"/><text class="SVGTextShape"><tspan class="TextParagraph" font-family="Liberation Sans, sans-serif" font-size="353" font-weight="400"><tspan x="2471" y="8246" class="TextPosition"><tspan style="white-space:pre">Startlisten</tspan></tspan></tspan></text></g><g class="com.sun.star.drawing.CustomShape"><path fill="none" d="M499 8499h5503v753H499z" class="BoundingBox"/><path fill="#729FCF" d="M3250 9250H500v-750h5500v750z"/><path fill="none" stroke="#3465A4" d="M3250 9250H500v-750h5500v750z"/><text class="SVGTextShape"><tspan class="TextParagraph" font-family="Liberation Sans, sans-serif" font-size="388" font-weight="400"><tspan x="966" y="9010" class="TextPosition"><tspan style="white-space:pre">Löschangriff - DIN - Lauf 1</tspan></tspan></tspan></text></g><g class="com.sun.star.drawing.CustomShape"><path fill="none" d="M499 9249h5503v753H499z" class="BoundingBox"/><path fill="#729FCF" d="M3250 10000H500v-750h5500v750z"/><path fill="none" stroke="#3465A4" d="M3250 10000H500v-750h5500v750z"/><text class="SVGTextShape"><tspan class="TextParagraph" font-family="Liberation Sans, sans-serif" font-size="388" font-weight="400"><tspan x="966" y="9760" class="TextPosition"><tspan style="white-space:pre">Löschangriff - DIN - Lauf 2</tspan></tspan></tspan></text></g><g class="com.sun.star.drawing.ConnectorShape"><path fill="none" d="M3150 2499h880v5252h-880z" class="BoundingBox"/><path fill="none" stroke="#3465A4" d="M3251 7536c25-4011 777-1474 777-5036"/><path fill="#3465A4" d="m3351 7550-101 200-99-200z"/></g><g class="com.sun.star.drawing.ConnectorShape"><path fill="none" d="M5999 8000h9191v1627H5999z" class="BoundingBox"/><path fill="none" stroke="#3465A4" d="M15094 8183c-332 962-3010 1442-9094 1442"/><path fill="#3465A4" d="m14991 8179 134-179 63 215z"/></g><g class="com.sun.star.drawing.ConnectorShape"><path fill="none" d="M5999 8000h2196v877H5999z" class="BoundingBox"/><path fill="none" stroke="#3465A4" d="M8099 8185c-141 460-682 690-2099 690"/><path fill="#3465A4" d="m7996 8182 129-182 68 213z"/></g><g class="com.sun.star.drawing.ConnectorShape"><path fill="none" d="M5999 8000h2219v1627H5999z" class="BoundingBox"/><path fill="none" stroke="#3465A4" d="M8117 8190c-80 957-700 1435-2117 1435"/><path fill="#3465A4" d="m8016 8195 109-195 91 204z"/></g><g class="com.sun.star.drawing.ConnectorShape"><path fill="none" d="M5999 8000h9127v877H5999z" class="BoundingBox"/><path fill="none" stroke="#3465A4" d="M15037 8164c-540 474-2953 711-9037 711"/><path fill="#3465A4" d="m14939 8125 186-125-12 223z"/></g><g class="com.sun.star.drawing.CustomShape"><path fill="none" d="M15499 1749h3253v753h-3253z" class="BoundingBox"/><path fill="#729FCF" d="M17125 2500h-1625v-750h3250v750z"/><path fill="none" stroke="#3465A4" d="M17125 2500h-1625v-750h3250v750z"/><text class="SVGTextShape"><tspan class="TextParagraph" font-family="Liberation Sans, sans-serif" font-size="494" font-weight="400"><tspan x="16312" y="2297" class="TextPosition"><tspan style="white-space:pre">Jugend</tspan></tspan></tspan></text></g><g class="com.sun.star.drawing.CustomShape"><path fill="none" d="M9999 4749h3253v753H9999z" class="BoundingBox"/><path fill="#729FCF" d="M11625 5500h-1625v-750h3250v750z"/><path fill="none" stroke="#3465A4" d="M11625 5500h-1625v-750h3250v750z"/><text class="SVGTextShape"><tspan class="TextParagraph" font-family="Liberation Sans, sans-serif" font-size="423" font-weight="400"><tspan x="10264" y="5273" class="TextPosition"><tspan style="white-space:pre">TGL – Männer</tspan></tspan></tspan></text></g><g class="com.sun.star.drawing.CustomShape"><path fill="none" d="M16999 4749h3253v753h-3253z" class="BoundingBox"/><path fill="#729FCF" d="M18625 5500h-1625v-750h3250v750z"/><path fill="none" stroke="#3465A4" d="M18625 5500h-1625v-750h3250v750z"/><text class="SVGTextShape"><tspan class="TextParagraph" font-family="Liberation Sans, sans-serif" font-size="423" font-weight="400"><tspan x="17442" y="5273" class="TextPosition"><tspan style="white-space:pre">LA – Jugend</tspan></tspan></tspan></text></g><g class="com.sun.star.drawing.CustomShape"><path fill="none" d="M6499 7249h3253v753H6499z" class="BoundingBox"/><path fill="#729FCF" d="M8125 8000H6500v-750h3250v750z"/><path fill="none" stroke="#3465A4" d="M8125 8000H6500v-750h3250v750z"/><text class="SVGTextShape"><tspan class="TextParagraph" font-family="Liberation Sans, sans-serif" font-size="423" font-weight="400"><tspan x="6804" y="7773" class="TextPosition"><tspan style="white-space:pre">DIN – Männer</tspan></tspan></tspan></text></g><g class="com.sun.star.drawing.CustomShape"><path fill="none" d="M13499 7249h3253v753h-3253z" class="BoundingBox"/><path fill="#729FCF" d="M15125 8000h-1625v-750h3250v750z"/><path fill="none" stroke="#3465A4" d="M15125 8000h-1625v-750h3250v750z"/><text class="SVGTextShape"><tspan class="TextParagraph" font-family="Liberation Sans, sans-serif" font-size="423" font-weight="400"><tspan x="13967" y="7773" class="TextPosition"><tspan style="white-space:pre">LA – Frauen</tspan></tspan></tspan></text></g><g class="com.sun.star.drawing.CustomShape"><path fill="none" d="M9999 7249h3253v753H9999z" class="BoundingBox"/><path fill="#729FCF" d="M11625 8000h-1625v-750h3250v750z"/><path fill="none" stroke="#3465A4" d="M11625 8000h-1625v-750h3250v750z"/><text class="SVGTextShape"><tspan class="TextParagraph" font-family="Liberation Sans, sans-serif" font-size="423" font-weight="400"><tspan x="10264" y="7773" class="TextPosition"><tspan style="white-space:pre">TGL – Männer</tspan></tspan></tspan></text></g><g class="com.sun.star.drawing.CustomShape"><path fill="none" d="M16999 7249h3253v753h-3253z" class="BoundingBox"/><path fill="#729FCF" d="M18625 8000h-1625v-750h3250v750z"/><path fill="none" stroke="#3465A4" d="M18625 8000h-1625v-750h3250v750z"/><text class="SVGTextShape"><tspan class="TextParagraph" font-family="Liberation Sans, sans-serif" font-size="423" font-weight="400"><tspan x="17442" y="7773" class="TextPosition"><tspan style="white-space:pre">LA – Jugend</tspan></tspan></tspan></text></g><g class="com.sun.star.drawing.ConnectorShape"><path fill="none" d="M17124 2499h1594v2252h-1594z" class="BoundingBox"/><path fill="none" stroke="#3465A4" d="M18617 4545c-120-1390-1492-358-1492-2045"/><path fill="#3465A4" d="m18716 4546-91 204-109-195z"/></g><g class="com.sun.star.drawing.ConnectorShape"><path fill="none" d="M9624 2499h2091v2252H9624z" class="BoundingBox"/><path fill="none" stroke="#3465A4" d="M11614 4546c-158-1391-1989-359-1989-2046"/><path fill="#3465A4" d="m11713 4545-88 205-111-194z"/></g><g class="com.sun.star.drawing.ConnectorShape"><path fill="none" d="M4060 2499h14622v2252H4060z" class="BoundingBox"/><path fill="none" stroke="#3465A4" d="M18591 4584c-769-1835-14530-772-14530-2084"/><path fill="#3465A4" d="m18680 4533-55 217-140-174z"/></g><g class="com.sun.star.drawing.ConnectorShape"><path fill="none" d="M4060 2499h7639v2252H4060z" class="BoundingBox"/><path fill="none" stroke="#3465A4" d="M11601 4557c-464-1798-7540-745-7540-2057"/><path fill="#3465A4" d="m11698 4539-73 211-125-185z"/></g><g class="com.sun.star.drawing.ConnectorShape"><path fill="none" d="M18525 5499h201v1752h-201z" class="BoundingBox"/><path fill="none" stroke="#3465A4" d="M18625 7063V5500"/><path fill="#3465A4" d="m18725 7050-100 200-100-200z"/></g><g class="com.sun.star.drawing.ConnectorShape"><path fill="none" d="M8025 5499h201v1752h-201z" class="BoundingBox"/><path fill="none" stroke="#3465A4" d="M8125 7063V5500"/><path fill="#3465A4" d="m8225 7050-100 200-100-200z"/></g><g class="com.sun.star.drawing.CustomShape"><path fill="none" d="M499 9999h5503v753H499z" class="BoundingBox"/><path fill="#729FCF" d="M3250 10750H500v-750h5500v750z"/><path fill="none" stroke="#3465A4" d="M3250 10750H500v-750h5500v750z"/><text class="SVGTextShape"><tspan class="TextParagraph" font-family="Liberation Sans, sans-serif" font-size="388" font-weight="400"><tspan x="1095" y="10510" class="TextPosition"><tspan style="white-space:pre">Löschangriff - TGL - Lauf</tspan></tspan></tspan></text></g><g class="com.sun.star.drawing.CustomShape"><path fill="none" d="M499 10749h5503v753H499z" class="BoundingBox"/><path fill="#729FCF" d="M3250 11500H500v-750h5500v750z"/><path fill="none" stroke="#3465A4" d="M3250 11500H500v-750h5500v750z"/><text class="SVGTextShape"><tspan class="TextParagraph" font-family="Liberation Sans, sans-serif" font-size="388" font-weight="400"><tspan x="1381" y="11260" class="TextPosition"><tspan style="white-space:pre">Löschangriff - Jugend</tspan></tspan></tspan></text></g><g class="com.sun.star.drawing.ConnectorShape"><path fill="none" d="M5999 8000h12714v3127H5999z" class="BoundingBox"/><path fill="none" stroke="#3465A4" d="M18613 8189c-251 1958-4196 2936-12613 2936"/><path fill="#3465A4" d="m18512 8193 113-193 86 206z"/></g><g class="com.sun.star.drawing.ConnectorShape"><path fill="none" d="M5999 8000h5717v2377H5999z" class="BoundingBox"/><path fill="none" stroke="#3465A4" d="M11616 8191c-148 1457-1866 2184-5616 2184"/><path fill="#3465A4" d="m11515 8194 110-194 89 205z"/></g></g></g></g></svg>