<svg xmlns="http://www.w3.org/2000/svg" width="344.01" height="343.986"><path d="M-466.866 603.754c-1.769-1.133-4.131-3.541-5.25-5.351-2.024-3.275-2.034-4.131-2.034-164.556 0-160.84.005-161.272 2.05-164.581 1.128-1.825 3.543-4.24 5.368-5.368 3.309-2.045 3.74-2.05 164.718-2.05h161.4l3.72 2.528c7.311 4.967 6.744-9.301 6.744 169.554 0 160.757-.005 161.19-2.05 164.499-1.128 1.824-3.544 4.24-5.369 5.368-3.309 2.045-3.726 2.05-164.7 2.033-161.217-.016-161.385-.019-164.597-2.076m325.058-6.017c1.34-.61 2.937-2.207 3.547-3.547 1.58-3.465 1.58-317.22 0-320.685-.61-1.34-2.206-2.937-3.547-3.548-3.465-1.578-317.22-1.578-320.685 0-1.34.611-2.936 2.207-3.547 3.548-.79 1.734-1.11 31.8-1.11 104.39v101.952h10.345c8.663 0 10.608-.29 11.962-1.786 3.052-3.374 5.038-9.725 5.693-18.214 1.367-17.694 5.02-38.609 6.99-40 5.28-3.731 17.01-14.68 17.01-15.877 0-.444 1.545-1.64 3.433-2.657 1.889-1.017 3.625-2.581 3.86-3.477.233-.895 2.063-2.384 4.066-3.308l6.993-3.225c1.844-.849 5.053-3.101 7.13-5.004 3.961-3.628 15.22-11.452 16.479-11.452.787 0 4.007-2.558 8.039-6.385 2.554-2.425 19.693-14.615 20.548-14.615.26 0 2.605-1.47 5.212-3.265s6.452-4.158 8.545-5.25 4.758-2.997 5.924-4.235c1.166-1.237 2.554-2.25 3.085-2.25.53 0 1.492-.72 2.135-1.6.782-1.07 3.349-1.774 7.747-2.127 5.371-.432 7.285-.156 10.44 1.506 2.125 1.118 8.364 3.045 13.864 4.282s11.125 2.83 12.5 3.54 5.65 1.794 9.5 2.407c6.351 1.01 11.501 2.35 20 5.2 1.65.554 4.8 1.374 7 1.824s6.025 1.498 8.5 2.331c2.475.834 9 2.73 14.5 4.216 16.674 4.503 20.961 8.436 22.286 20.445.674 6.116.866 6.494 3.464 6.793 1.512.174 2.75.674 2.75 1.112 0 .437 2.294 3.272 5.098 6.3 5.242 5.658 9.889 15.028 9.897 19.956.01 5.695-1.47 7.339-9.522 10.571-4.237 1.701-8.32 2.857-9.073 2.568-1.545-.593-7.4-10.373-7.4-12.362 0-1.406-1.373-3.063-7.5-9.052-2.955-2.889-4.83-3.91-7.18-3.91-4.82 0-9.739 3.778-12.698 9.75-1.43 2.888-3.056 5.25-3.611 5.25s-1.011 1.35-1.011 3 .45 3 1 3 1 1.8 1 4-.45 4-1 4-1 .62-1 1.378c0 1.45-21.905 34.88-23.231 35.456-.423.183-.77.778-.77 1.321 0 1.091-1.049 2.33-7.277 8.588-6.32 6.35-11.845 6.828-19.43 1.68-2.069-1.403-5.168-3.219-6.888-4.035-3.224-1.53-5.404-4.962-5.404-8.507 0-2.547 4.247-9.863 8.153-14.045 1.637-1.753 3.67-4.528 4.518-6.167s2.393-3.895 3.435-5.013 1.894-2.784 1.894-3.702c0-2.083-7.104-2.954-24.088-2.954-6.784 0-12.057-.425-12.412-1-.34-.55-1.604-1.014-2.81-1.032-1.204-.017-2.957-.614-3.895-1.326-1.657-1.26-5.61-8.395-7.709-13.913-.57-1.501-1.702-2.729-2.516-2.729-.813 0-4.377 2.138-7.92 4.75a1350 1350 0 0 1-13.045 9.476c-4.11 2.94-6.605 5.434-6.605 6.6 0 1.85 5.538 10.36 7.162 11.008.46.183.838.901.838 1.596s1.486 2.795 3.303 4.667c3.082 3.175 11.697 15.387 11.697 16.58 0 .656 5.51 7.661 9.24 11.747 3.824 4.188 5.82 11.754 4.777 18.103-.86 5.237-4.828 14.473-6.217 14.473-.44 0-.8.503-.8 1.118s-2.475 4.406-5.5 8.425-5.5 7.598-5.5 7.952c0 .891-6.013 9.778-7.446 11.005-1.59 1.362-9.591 11.945-12.054 15.944-1.1 1.786-3.238 4.861-4.75 6.835-1.513 1.973-2.75 3.861-2.75 4.196s-2.086 3.852-4.635 7.816c-8.726 13.573-18.68 18.349-28.716 13.777-6.595-3.004-10.304-7.23-11.584-13.196-2.087-9.735-.572-16.648 4.778-21.804 1.465-1.412 4.238-4.722 6.16-7.356a543 543 0 0 1 7.247-9.643c2.062-2.67 3.75-5.34 3.75-5.933 0-1.595 5.862-9.701 11-15.21 7.984-8.563 9.325-10.81 9.79-16.4.392-4.74.093-5.712-3.203-10.402-2-2.845-4.412-5.993-5.362-6.996-4.751-5.022-10.945-12.804-12.75-16.02-2.755-4.908-7.45-5.43-12.634-1.405-3.765 2.924-5.199 6.389-8.401 20.297-3.581 15.553-7.584 26.43-10.764 29.25l-3.1 2.75h-44.576V555.8c0 37.552.243 39.882 4.364 41.878 3.12 1.51 317.665 1.569 320.978.059m-32.558-15.53c-5.03-2.705-4.702-2.716-17.284.553-2.2.572-8.065 1.05-13.033 1.063l-9.032.024-4.848-4.75c-2.666-2.612-6.022-6.55-7.458-8.75s-3.065-4.32-3.62-4.712c-.607-.428-1.131-9.092-1.315-21.75-.295-20.236-.233-21.038 1.627-21.038 2.873 0 3.903 1.807 5.56 9.757 2.816 13.501 9.955 22.165 19.619 23.806 6.479 1.1 16.986 4.59 17.746 5.895.414.712 3.229 2.54 6.254 4.065 7.486 3.772 12.25 9.124 14.44 16.227.584 1.893.327 2.242-1.623 2.198-1.275-.028-4.44-1.193-7.033-2.588m12.882-15.026c-.366-.367-.666-3.332-.666-6.589 0-9.194-4.116-17.052-13.736-26.225-9.67-9.22-8.876-8.363-11.584-12.52-5.455-8.373-6.267-18.842-2.333-30.075 1.459-4.166 2.653-8.609 2.653-9.872 0-1.82.281-2.064 1.355-1.173.75.622 1.635 4.114 1.98 7.8.342 3.672.97 6.934 1.394 7.248s1.622 2.147 2.662 4.072c2.499 4.623 6.617 9 8.468 9 .817 0 5.005 3.65 9.307 8.111 11.145 11.557 12.89 18.504 8.885 35.39-3.175 13.389-3.982 15.5-5.932 15.5-.982 0-2.086-.3-2.453-.667m-14.127-7.427c-1.078-1.086-3.103-2.218-4.5-2.516s-4.176-1.407-6.175-2.466c-2-1.059-4.925-1.943-6.5-1.964-1.576-.022-5.968-1.26-9.76-2.75-6.457-2.538-7.08-3.062-9.76-8.21-4.67-8.97-5.405-14.693-3.849-29.958 1.37-13.44 2.304-15.7 5.416-13.116.762.632 1.631 2.82 1.93 4.862 1.04 7.077 1.89 10.211 2.772 10.211.488 0 .888.788.89 1.75.006 2.718 3.448 7.723 8.559 12.446a9098 9098 0 0 0 8.27 7.633c1.988 1.83 5.876 4.445 8.64 5.81 7.85 3.876 9.435 5.6 10.547 11.464.55 2.896.74 6.082.422 7.081-.757 2.387-4.402 2.24-6.902-.277m-89.04-222.378c-.55-.194-2.324-.649-3.944-1.01-4.206-.935-12.163-9.883-14.623-16.441-1.56-4.161-1.881-6.638-1.38-10.65.591-4.73.453-5.291-1.45-5.895-1.947-.618-3.096-4.533-1.33-4.533.425 0 1.65-1.628 2.721-3.617s3.536-4.802 5.477-6.25 4.098-3.169 4.792-3.823c1.873-1.768 9.594-2.654 17.413-1.998 7.033.59 17.825 4.605 17.825 6.633 0 .58.59 1.055 1.312 1.055 1.521 0 5.085 4.526 6.113 7.764.388 1.223 1.443 2.962 2.345 3.864 1.23 1.23 1.65 3.59 1.684 9.458.039 6.68-.246 8.04-1.954 9.335-1.1.834-2.675 1.53-3.5 1.55-.825.018-4.2 2.72-7.5 6.002-3.3 3.284-7.35 6.397-9 6.92-3.393 1.074-13.481 2.175-15 1.636m-3.5 141.353c0-.615 1.36-2.752 3.02-4.75 1.66-1.997 4.14-4.982 5.509-6.632 4.351-5.244 8.415-10.97 8.444-11.897.015-.493 1.533-2.743 3.372-5 1.84-2.256 3.924-5.228 4.632-6.603.709-1.375 2.79-4.358 4.625-6.63 3.434-4.251 5.921-12.147 4.87-15.46-.82-2.582-5.297-5.91-7.951-5.91-2.898 0-5.336 2.797-6.159 7.066-1.352 7.008-7.426 12.916-13.31 12.948-5.097.027-6.93 1.25-10.468 6.982-1.97 3.193-3.583 6.082-3.583 6.42 0 .7-7.17 11.821-8.113 12.584-1.267 1.025-1.947 4.916-1.305 7.47 1.31 5.224 16.418 13.884 16.418 9.412m84.736-57.632c4.11-1.69 4.258-1.906 4.29-6.25.05-6.555-7.384-21.488-11.425-22.95-4.21-1.525-5.187-1.34-8.299 1.572-1.54 1.441-3.814 3.293-5.051 4.115-3.215 2.134-2.785 3.932 1.26 5.267 4.222 1.393 7.414 5.366 11.044 13.746 1.489 3.438 2.981 6.25 3.316 6.25s2.524-.787 4.865-1.75m-47.925-10.508c.266-3.202.016-3.742-1.73-3.742-2.214 0-3.762 3.781-2.691 6.572 1.162 3.03 4.09 1.155 4.421-2.83m-12.01 1.058c.66-.66 1.2-2.01 1.2-3s.337-1.803.75-1.806c.412-.003 1.516-1.354 2.453-3 1.286-2.26 2.424-2.994 4.643-2.994 2.713 0 4.154-1.432 4.154-4.13 0-1.45-8.06-4.823-11.585-4.848-1.697-.012-5.747-.856-9-1.875a401 401 0 0 0-12.415-3.614c-3.575-.968-8.493-2.384-10.928-3.147s-6.552-1.386-9.147-1.386c-4.126 0-5.098.433-7.745 3.448l-3.027 3.447 1.71 4.507c.942 2.478 2.033 4.828 2.426 5.22.393.394 6.9.758 14.462.81 11.45.08 14.406.42 17.682 2.033 4.362 2.148 9.184 6.755 10.104 9.652.682 2.149 2.505 2.441 4.263.683m21.093-8.685c2.533-1.947 2.158-4.115-.712-4.115-1.94 0-4.549 3.597-3.656 5.04.833 1.35 1.63 1.18 4.368-.925" style="fill:#000" transform="translate(474.15 -261.847)"/></svg>