<svg xmlns="http://www.w3.org/2000/svg" width="343" height="350.465"><path d="M195.284 847.84c-1.768-1.133-4.13-3.54-5.25-5.35-2.024-3.276-2.034-4.115-2.034-167.556 0-163.865.005-164.272 2.05-167.582 1.128-1.825 3.544-4.24 5.368-5.368 3.234-1.998 4.637-2.05 55.367-2.05 62.68-1.054 131.172.012 161.347 0 107.273 0 108.158.016 111.45 2.05 1.824 1.128 4.24 3.543 5.368 5.368 2.045 3.31 2.05 3.717 2.05 167.582s-.005 164.272-2.05 167.581c-1.128 1.825-3.544 4.24-5.368 5.368-3.295 2.036-4.116 2.05-118.95 2.05H289v-73h-28v73l-31.25-.016c-29.829-.016-31.396-.11-34.466-2.077m29.137-27.156.665-22.25-6.928-19.462c-3.811-10.704-7.383-19.613-7.938-19.798-1.176-.393-12.412 10.381-14.083 13.504-1.692 3.162-1.587 64.95.113 66.642 2.976 2.96 5.692 3.554 16.378 3.583l11.127.03zM257 807.934v-35h15v-32h-3c-2.667 0-3-.334-3-3v-3h19v3c0 2.666-.333 3-3 3h-3v32h14v70h111.453c79.552 0 112.15-.318 113.89-1.11 5.416-2.469 5.136 6.143 5.422-166.89.187-113.418-.053-161.269-.818-163.12-.595-1.442-2.198-3.13-3.562-3.75-1.809-.825-44.9-1.13-159.385-1.13-156.236 0-162 .112-162 3.16 0 .462-.675.84-1.5.84-1.323 0-1.5 11-1.5 93 0 51.15.25 93 .554 93s7.537-7.012 16.074-15.58c8.536-8.57 17.125-16.67 19.086-18 4.495-3.051 10.41-3.161 23.915-.445 5.402 1.087 12.36 2.263 15.46 2.614l5.639.638 10.034 13.736 10.033 13.737-5.263 19.182c-2.894 10.55-5.462 19.381-5.706 19.625s-2.702.176-5.462-.15l-5.018-.595 2.395-13.513c1.317-7.433 2.027-13.846 1.577-14.252-.45-.405-4.386-1.917-8.746-3.359l-7.929-2.62-16.867 16.8-16.868 16.801 1.883 4.44c1.035 2.443 5.84 14.903 10.677 27.69l8.795 23.249-3.164 24.75c-1.74 13.614-3.424 26.214-3.743 28.002l-.579 3.25H257zm31.206-47.17.294-7.168 20.5-5.299c25.019-6.466 25-6.458 25-10.342 0-3.003-.036-3.022-5.75-3.098-6.697-.089-8.507-.373-12.243-1.92-2.611-1.082-5.007-4.61-5.007-7.373 0-1.049 7.499-5.63 9.215-5.63.272 0 11.473-5.328 24.89-11.84 30.841-14.969 40.202-19.431 46.145-21.997 4.798-2.072 5.325-2.712 3.976-4.831-.883-1.389-12.622 2.4-16.998 5.486-1.5 1.059-5.428 3.148-8.728 4.645-10.542 4.78-27.74 12.662-36.348 16.66-4.592 2.132-8.724 3.877-9.184 3.877s-3.577 1.188-6.927 2.641-6.325 2.408-6.61 2.122c-.287-.286.647-5.59 2.074-11.785l2.595-11.266 9.782-12.359c8.615-10.883 11.372-13.55 23.091-22.333 7.32-5.486 14.032-10.191 14.918-10.456 8.943-2.674 24.451-5.376 26.368-4.594 2.227.908 3.81 2.275 17.78 15.347 6.21 5.81 7.669 6.724 9.874 6.184 1.423-.348 7.987-3.823 14.587-7.722 11.37-6.717 12.308-7.083 17.87-6.978 4.43.083 7.077-.5 10.788-2.381 2.704-1.37 5.35-2.224 5.88-1.897 2.119 1.31.68 3.577-5.085 8.013-3.326 2.56-7.088 6.301-8.359 8.315-1.658 2.627-7.982 7.432-22.382 17.008-19.436 12.924-20.092 13.47-20.729 17.239-.945 5.593-19.986 49.808-22.16 51.456-1.002.76-3.89 1.396-6.418 1.414-5.403.037-7.905-2.065-7.905-6.64 0-3.007 2.784-12.138 5.436-17.828.77-1.65 1.72-4.737 2.113-6.86.643-3.472.526-3.802-1.167-3.293-1.035.311-5.032 1.326-8.882 2.255-3.85.93-7.563 2.129-8.25 2.666-.778.608-1.277 3.667-1.321 8.104-.04 3.92-.394 10.679-.788 15.02-1.026 11.28-1.792 11.801-27.903 18.956-19.806 5.426-21.268 5.68-32.532 5.666l-11.794-.014zm99.094-80.53c2.388-1.268 2.77-1.792 1.502-2.063-1.995-.428-5.802 1.408-5.802 2.798 0 1.329.61 1.225 4.3-.735m-133.76-22.122c-3.796-.877-10.197-9.186-11.073-14.373-.372-2.202-1.21-3.805-1.988-3.805-3.92 0-2.003-8.277 3.086-13.319 5-4.953 10.952-7.016 18.274-6.332 6.07.567 9.875 2.41 14.781 7.163 4.366 4.228 5.992 14.841 2.447 15.966-1.063.338-2.88 2.568-4.035 4.956-3.69 7.62-12.805 11.754-21.492 9.744m154-10c-3.796-.877-10.197-9.186-11.073-14.373-.372-2.202-1.21-3.805-1.988-3.805-3.92 0-2.003-8.277 3.086-13.319 7.68-7.609 20.115-8.75 28.968-2.659 5.332 3.668 7.518 6.73 8.4 11.768.842 4.8.343 6.987-1.747 7.652-.927.296-2.746 2.538-4.042 4.985-4.117 7.774-12.938 11.755-21.604 9.751M473 596.934v-36h-2.5c-2.491 0-2.5-.034-2.5-9.5v-9.5h14v9.5c0 9.466-.009 9.5-2.5 9.5H477v36c0 35.333-.037 36-2 36s-2-.667-2-36m19-12v-48h-2.5c-2.491 0-2.5-.034-2.5-9.5v-9.5h14v9.5c0 9.466-.009 9.5-2.5 9.5H496v48c0 47.333-.028 48-2 48s-2-.667-2-48m18 20.5v-27.5h-2.5c-2.491 0-2.5-.034-2.5-9.5v-9.5h14v9.5c0 9.466-.009 9.5-2.5 9.5H514v27.5c0 26.833-.049 27.5-2 27.5s-2-.667-2-27.5" style="fill:#000" transform="translate(-188 -499.468)"/></svg>