<svg xmlns="http://www.w3.org/2000/svg" width="347.01" height="354.01"><path d="M200.462 647.036c-7.315-4.97-6.743 9.849-6.743-174.553 0-165.799.005-166.19 2.05-169.5 1.128-1.824 3.544-4.24 5.369-5.368 3.309-2.045 3.729-2.05 166.081-2.05 162.353 0 162.773.005 166.082 2.05 1.825 1.128 4.24 3.544 5.368 5.368 2.046 3.31 2.05 3.7 2.05 169.718v166.4l-2.528 3.72c-4.97 7.313 9.48 6.744-171.19 6.744H204.184zm256.725-7.721c-.38-1.788-1.385-4.038-2.234-5-1.455-1.65-8.815-1.75-127.889-1.75-109.821 0-126.345.19-126.345 1.453 0 2.624 2.189 6.324 4.364 7.377 1.434.695 43.327 1.057 127.466 1.102l125.33.068zm71.875 2.14c1.34-.611 2.936-2.207 3.547-3.548.792-1.738 1.11-33.67 1.11-111.39 0-107.02-.034-108.952-1.932-108.952-2.015 0-2.52 1.01-3.626 7.25-.365 2.062-1.03 3.75-1.475 3.75-.447 0-1.307 1.502-1.913 3.338-1.695 5.134-5.44 9.588-11.777 14.004-5.768 4.02-5.791 4.025-15.277 4.001-7.778-.02-10.233-.414-13.546-2.178-7.692-4.096-15.454-14.675-15.454-21.063 0-3.247-2.373-4.048-15.084-5.086-6.829-.558-15.116-1.49-18.416-2.07-9.978-1.753-51.82-4.694-54.25-3.812-2.518.914-6.464 6.71-5.562 8.17.321.52 3.335 2.204 6.698 3.744s7.664 3.959 9.559 5.376c3.564 2.666 5.966 3.205 7.605 1.709 2.39-2.182 10.374-3.805 17.45-3.548 7.659.278 15.442 2.832 17.99 5.903 2.024 2.438 5.916 1.89 7.01-.988.886-2.33 1.416-2.5 7.776-2.5 3.974 0 7.325.5 8.024 1.2.702.701 1.2 4.066 1.2 8.096 0 9.162-1.804 12.297-7.574 13.163-4.738.71-5.426 1.718-5.426 7.953 0 4.254-2.301 9.76-6.932 16.588-2.43 3.582-11.002 10-13.357 10-.72 0-1.801.49-2.4 1.09-.666.665-3.572.909-7.45.625-16.102-1.178-23.696-5.687-29.373-17.442-2.455-5.083-2.716-5.285-9.507-7.348-3.841-1.166-7.204-2.478-7.474-2.915s-3.307-2.14-6.749-3.787c-20.93-10.013-20.53-9.978-28.508-2.434-3.624 3.427-6.25 6.752-6.25 7.915 0 1.754 4.314 9.088 21.345 36.296 2.238 3.575 5.279 7.924 6.757 9.664 3.87 4.557 5.261 9.593 4.482 16.22-.797 6.788-3.68 11.272-11.46 17.827-3.093 2.605-8.182 7.16-11.31 10.124-3.127 2.963-6.727 6.087-8 6.942s-5.036 4.068-8.364 7.139c-3.327 3.071-8.482 7.609-11.455 10.084-7.85 6.535-18.995 17.192-18.995 18.164 0 .46 40.254.836 89.453.836 52.89 0 90.392.38 91.75.93 1.264.513 3.498 1.187 4.965 1.499 1.665.354 3.524 1.977 4.947 4.32 1.254 2.063 2.529 3.976 2.833 4.25 1.329 1.203 16.014 23.903 17.952 27.75l2.141 4.25h10.933c6.013 0 12.029-.499 13.369-1.11m-282.339-49.14c.004-8.404 1.639-11.895 7.661-16.365 2.11-1.566 5.185-4.21 6.835-5.877s6.15-5.648 10-8.846c7.176-5.96 12.338-10.44 18.5-16.054 1.925-1.754 5.525-4.796 8-6.76 2.475-1.966 6.638-5.592 9.25-8.06 6.94-6.556 6.602-8.761-3.64-23.785-5.789-8.493-7.377-10.02-9.568-9.21-3.39 1.253-35.413 30.967-41.024 38.065-4.146 5.245-8.483 7.142-16.33 7.142-4.15 0-6.035-.975-20.133-10.417l-15.555-10.416v77.833h46zm-5.462-100.004c2.139-2.486 7.161-16.46 10.533-29.306 3.286-12.518 8.488-20.14 19.692-28.85 3.601-2.8 8.878-7.115 11.726-9.59s7.74-6.525 10.869-9c11.345-8.973 18.638-15.251 18.638-16.044 0-.445.634-.955 1.409-1.133.774-.178 3.587-2.204 6.25-4.503 24.796-21.41 25.639-21.885 38.341-21.629 9.203.186 37.907 2.859 62.5 5.82 6.6.794 18.975 2.149 27.5 3.01 18.863 1.904 24.3 3.047 26.602 5.591 3.03 3.349 8.334 6.178 9.677 5.162 1.897-1.435 9.092-3.274 12.808-3.274 4.125 0 13.913 2.204 13.913 3.133 0 .918 9.741 7.867 11.027 7.867.563 0 1.45-1.125 1.973-2.5.797-2.095 1.603-2.5 4.976-2.5h4.024v-42.453c0-28.983-.352-43.226-1.11-44.89-.61-1.34-2.207-2.936-3.547-3.547-3.503-1.596-320.224-1.577-323.728.02-1.364.62-2.968 2.308-3.565 3.75-.757 1.83-1.004 27.654-.817 85.62l.267 83 2.43 2.75c1.337 1.512 2.866 2.75 3.397 2.75 1.216 0 12.057 7.1 12.507 8.192.183.444.9.808 1.595.808.694 0 2.053.875 3.02 1.944 3.506 3.873 13.693 3.755 17.093-.198m145.458-125.567c-9.57-6.202-14.356-14.594-14.445-25.324-.042-5.122-.5-7.137-1.996-8.79-1.894-2.093-1.897-2.226-.107-5.356 5.103-8.926 9.79-11.9 23.245-14.75 5.828-1.236 14.557.399 19.951 3.735 1.606.993 4.366 2.706 6.135 3.806 5.927 3.687 11.998 20.305 9.275 25.392-.58 1.082-2.067 2.112-3.305 2.288-1.475.21-3.116 1.892-4.753 4.871-6.107 11.119-12.278 15.448-23.5 16.489-5.428.503-6.428.278-10.5-2.36m34.386 120.405c5.802-1.746 10.954-5.577 14.01-10.419 3.346-5.3 5.601-13.903 4.932-18.817-.487-3.583-.259-4.315 1.668-5.346 1.227-.657 3.786-1.013 5.686-.791 4.382.511 5.53-1.392 5.12-8.491-.257-4.453-.615-5.265-2.436-5.525-1.368-.195-2.896.663-4.252 2.388-1.99 2.529-2.458 2.652-7.745 2.03-3.095-.363-6.843-1.527-8.329-2.585-3.532-2.515-17.943-4.412-22.958-3.022-6.107 1.693-6.575 2.342-6.65 9.208-.037 3.457-.43 8.39-.875 10.96-1.27 7.347-.079 11.113 5.14 16.26 4.41 4.346 4.908 4.566 10.333 4.566 10.227 0 14.91-6.513 14.153-19.679-.273-4.743-7.806-12.321-12.248-12.321-6.387 0-9.696 6.04-6.797 12.403 1.258 2.76 5.633 4.731 8.713 3.926 2.642-.691 5.283.836 4.273 2.47-1.172 1.897-7.681 2.638-10.857 1.237-9.564-4.219-11.755-18.23-3.5-22.375 4.25-2.134 12.506-1.575 16.112 1.09 1.672 1.237 3.408 2.249 3.857 2.249s2.074 1.912 3.61 4.25c2.544 3.873 2.761 4.915 2.444 11.75-.38 8.198-2.314 12.24-8.12 16.977-2.41 1.967-4.44 2.557-9.838 2.862-3.742.212-7.822.128-9.067-.186-3.542-.893-10.377-7.765-11.84-11.903-1.012-2.862-1.871-3.75-3.626-3.75s-2.299.563-2.299 2.377c0 1.308.675 2.938 1.5 3.623.825.684 1.5 1.82 1.5 2.522s2.41 3.48 5.355 6.17c5.11 4.671 7.894 5.827 17.236 7.153.6.085 3.208-.482 5.795-1.26m88.114-44.313c9.352-6.046 14.14-14.647 13.621-24.466-.233-4.404 2.197-6.22 7.493-5.602l3.386.395v-7.299c0-8.101-1.247-9.343-4.821-4.8-2.623 3.335-7.95 3.398-11.852.142-6.95-5.801-15.616-8.56-23.286-7.414-8.062 1.206-10.04 2.847-10.04 8.328 0 5.978-2.066 10.632-6.987 15.74-3.21 3.333-3.93 4.723-3.473 6.705 1.061 4.6 4.71 11.185 8.433 15.217 6.468 7.004 19.227 8.42 27.526 3.054m-18.229-4.974c-3.196-.618-9.109-7.962-10.68-13.267-1.594-5.378-.574-8.31 2.727-7.84 1.808.257 2.268 1.127 2.682 5.076.334 3.183 1.427 5.922 3.293 8.25 2.57 3.206 3.224 3.484 8.211 3.484 4.245 0 5.85-.463 7.408-2.135 4.936-5.299 6.456-13.32 3.578-18.885-1.898-3.67-4.935-5.325-9.46-5.155-4.174.157-6.03 2.26-6.03 6.836 0 2.494.729 3.817 3.041 5.527 3.512 2.597 3.695 6.135.342 6.614-2.655.379-6.924-4.48-8.293-9.44-2.078-7.526 4.123-14.822 11.774-13.854 6.182.782 11.294 2.904 13.097 5.437 5.126 7.198 2.925 19.344-4.724 26.078-4.087 3.597-5.006 3.964-9.627 3.84-2.81-.074-6.113-.33-7.339-.566" style="fill:#000" transform="translate(-193.709 -295.565)"/></svg>