<svg xmlns="http://www.w3.org/2000/svg" width="345.145" height="344.482"><path d="M65.999 748.697c-13.134-12.16-4.793-33.16-7.26-49.23-.045-42.558-.017-85.117-.025-127.676 15.246 1.658 29.053 9.063 44 12.296 25.07 7.067 49.143 17.654 74.415 23.704 31.548 8.12 62.347 19.84 93.702 29.048 40.56 13.722 80.98 27.46 121.736 40.498 9.765.312 11.4 8.69 10.147 16.334-.281 15.728.78 31.558-.91 47.199-9.597 16.907-33.172 6.914-49.228 9.807-93.148-.101-186.314.76-279.45-.59-2.36-.3-5.046.016-7.127-1.39m325.058-6.017c9.105-11.938 2.744-30.427 4.647-44.973 3.365-21.515-23.538-19.376-36.877-26.465-19.569-6.899-39.35-12.274-58.793-19.539-18.31-5.928-36.384-12.833-55.004-17.665-8.404 14.243-23.59 24.25-37.684 33.21-19.828 12.133-36.949 28.625-57.5 39.498-14.713 6.87-25.05-10.278-29.741-17.862-18.21 12.323-36.82 24.516-53.802 38.384-5.937 22.076 21.293 14.861 34.272 16.05 96.817.388 193.69 1.275 290.482-.638M69.843 674.54c13.214-9.838 27.345-18.241 40.363-28.448 12.65-10.136 28.536-17.174 38.98-29.475 9.861-19.06-23.37-16.325-34.58-23.656-15.586-4.101-31.273-11.069-46.73-13.782-4.487 15.538-1.229 32.492-2.162 48.612.115 16.332-.157 32.682.592 49l1.283-.661zm322.609-5.345c-14.523-1.344-26.405-10.335-16.408-25.22-.07-15.086 15.295-26.236 26.67-14.969v34.578c-2.977 2-6.375 7.575-10.262 5.611m3.262-22.404c-.686-5.305 1.351-13.333-.973-17-12.436-.863-20.474 25.48-12.415 32.118 11.29 6.023 15.585.5 13.388-9.794zm-52 6.918c-11.848-5.064-38.002-6.933-28.86-25.806 1.839-16.568 13.16-29.553 30.08-18.905 16.85 1.914 34.864 11.317 21.932 30.35-2.383 12.02-9.855 22.779-23.152 14.361m17.72-15.418c10.01-14.556-1.388-22.721-15.662-24.405-13.914-9.141-23.717.19-24.884 14.926-7.387 18.102 23.692 17.341 34.516 22.533 3.754-3.103 4.224-8.769 6.03-13.054m-70.087-1.61c-11.24-7.843-41.21-4.296-37.626-23.078 5.409-11.4 6.565-36.47 25.088-26.178 13.096 5.773 44.221 6.566 31.907 28.07-2.972 9.178-5.66 26.201-19.369 21.187m12.271-17.826c12.319-17.999-7.689-21.72-21.266-25.447-17.286-13.21-23.067 17.597-21.209 27.747 12.568.639 35.808 20.877 40.794 2.7l.835-2.422zm-75.404-2.304c-11.706-6.814-41.468-4.289-33.139-24.417 1.944-16.725 12.173-35.018 30.892-21.849 13.59 4.444 37.325 7.17 24.138 25.896-4.588 10.985-5.321 27.099-21.89 20.37m18.713-26.394c6.306-8.862-9.275-10.935-3.413.041-1.073 8.691 2.25 5.8 3.413-.041m134.942 23c-14.996-4.449-29.414-8.633-44.145-13.748-28.771-10.46-58.296-18.733-87.01-29.259-32.63-8.59-64.25-20.498-96.737-29.478-7.198-5.437-32.28-11.046-21.349 4.053-5.02 13.412-6.435 44.224-27.765 33.894-15.777-2.617-37.047-10.32-23.903-29.78 2.266-12.604 23.214-29.741-.375-32.765-20.24.496-24.785-16.191-21.831-33.185.292-21.963-.863-44.017.852-65.917 9.234-17.302 33.178-7.141 49.224-10.072 93.073.09 186.163-.776 279.223.56 21.407 1.24 12.47 28.252 14.595 42.208.121 54.591.045 109.183.066 163.774-5.493 8.073-13.625 1.25-20.845-.285m13.845-38.322V537.88c-21.143 9.135-42.758 16.816-63.5 26.975-14.663 8.554-39.045 15.255-46.559-5.76-3.698-13.073-30.393 7.892-22.723 11.22 27.881 6.774 54.746 17.387 82.076 26.072 16.487 5.022 32.43 12.584 49.501 15.164 2.314-11.851.666-24.605 1.205-36.715m-278.999.706c2.949-12.08 20.197-38.848-4.63-33.798-9.943.35-20.838-16.115-23.216 2.202-6.592 11.714-8.818 27.304 9.23 26.759 6.19 1.302 12.272 5.047 18.616 4.837m54-38.846c17.942-13.35 37.253-25.31 55.047-38.534-8.136-14.382-32.686-8.902-43.195 2.552-12.781 10.681-31.746 17.046-40.757 30.693 8.565 1.72 20.803 10.943 28.904 5.29m163.705-12.142c20.61-8.643 40.363-19.352 61.279-27.262-.324-26.276.888-52.64-1.095-78.843-12.404-8.726-31.428-2.115-46.467-4.377-92.582-.228-185.21-1.172-277.765.83-8.834 13.181-2.753 32.552-4.658 48.314 2.778 14.06-6.09 36.435 6.096 45.154 12.26 5.515 23.463 8.341 32.289-3.956 23.254-15.943 47.73-30.284 70.499-47.094 12.632-13.524 30.056-12.322 45.326-5.085 20.452 5.416 41.068 10.737 61.287 17.274 12.341 13.541 19.76 31.06 28.855 46.917 4.417 9.854 14.843 14.514 24.354 8.128m-8.57-28.483c-16.414-3.307-26.29-23.257-17.928-38.013-6.769-15.93 17.534-24.251 30.571-21.562 21.25.961 36.676 28.105 25.296 46.509-12.528 3.462-23.223 17.033-37.94 13.066M163.213 596.644c-11.423-6.438-39.499-4.133-29.034-24.142 2.224-15.567 11.528-32.742 29.153-21.96 12.031 5.247 39.396 4.1 29.153 24.149-2.162 15.478-11.286 34.522-29.272 21.953M148.66 582.04c-2.708-7.366 1.552-28.55-2.2-28.709-3.106 9.714-16.898 35.955 2.036 31.756zM59.457 563.2c.334-14.69-3.821-32.53 2-45.533 13.12 1.046 22.099 9.025 13.383 21.623-5.289 6.754-3.877 26.346-15.383 23.91m11.726-29.192c3.3-12.955-9.853-9.982-5.449 1.267.554 3.063-1.37 17.854 1.606 9.459 1.527-3.48 2.726-7.098 3.843-10.726" style="fill:#000" transform="translate(-57.935 -406.547)"/></svg>