<svg xmlns="http://www.w3.org/2000/svg" width="343.008" height="349.986"><path d="M158.131 708.443c-1.768-1.133-4.13-3.541-5.25-5.351-1.953-3.161-2.034-4.821-2.034-41.769 0-43.636-.59-40.665 8.513-42.883 2.743-.668 9.037-2.441 13.987-3.94s11.223-3.045 13.941-3.435 7.218-1.609 10-2.709 7.759-2.427 11.059-2.948 10.05-2.221 15-3.778 16.65-4.949 26-7.539 19.025-5.306 21.5-6.035 9-2.549 14.5-4.042 13.314-3.786 17.364-5.096 8.347-2.382 9.55-2.382c1.202 0 2.662-.476 3.243-1.057.582-.582 3.61-1.321 6.73-1.643s5.91-.971 6.201-1.443c.292-.471 1.418-.857 2.502-.857 2.555 0 3.256-1.959 1.94-5.42-.998-2.626-1.312-2.741-6.29-2.31-9.42.816-18.14 2.789-23.74 5.371-5.239 2.416-18.467 6.12-49.5 13.866-7.7 1.922-18.115 4.607-23.144 5.968-5.03 1.36-12.455 2.978-16.5 3.593-4.046.615-10.056 1.787-13.356 2.604s-7.125 1.736-8.5 2.041c-1.375.306-2.95.864-3.5 1.241-2.188 1.5-19.539 5.82-26.72 6.652-4.468.517-6.275.3-8.25-.995l-2.53-1.657V486.881c0-114.81.014-115.632 2.05-118.926 1.128-1.825 3.544-4.24 5.368-5.368 3.31-2.045 3.746-2.05 164.082-2.05s160.773.004 164.082 2.05c1.824 1.127 4.24 3.543 5.368 5.368 2.017 3.265 2.05 4.468 2.05 75.904v72.587l-10.224 7.295-10.224 7.295 10.224.285 10.224.285v84.097c0 83.04-.026 84.139-2.05 87.415-1.128 1.824-3.544 4.24-5.368 5.368-3.31 2.045-3.73 2.05-164.2 2.033-160.713-.016-160.885-.019-164.098-2.076m323.059-6.017c1.34-.61 2.936-2.207 3.547-3.547.784-1.721 1.11-25.924 1.11-82.39v-79.953h-9.5c-8.737 0-9.5-.156-9.5-1.94 0-1.068-.45-2.22-1-2.56s-1-1.45-1-2.467c0-1.313 3.193-3.645 11-8.033l11-6.183v-70.361c0-49.437-.33-71.086-1.11-72.799-.611-1.34-2.207-2.936-3.547-3.547-3.465-1.578-315.22-1.578-318.686 0-1.34.611-2.936 2.207-3.547 3.547-.774 1.7-1.11 20.505-1.11 62.102v59.664l28.75-28.543c30.528-30.308 33.88-32.9 42.489-32.86 2.344.01 7.86.683 12.26 1.494 22.458 4.14 31.498 5.715 36.5 6.36 10.441 1.344 15.668 6.612 18.482 18.626.901 3.85 2.323 9.7 3.159 13s1.954 7.8 2.485 10 1.412 5.688 1.959 7.75l.993 3.75h13.58l22.892 25.5 22.891 25.5h4.615c3.493 0 9.67-2.066 25.416-8.5 22.97-9.386 26.323-10.01 34.29-6.381 5.492 2.502 10.98 2.234 22.103-1.078 3.945-1.175 7.642-1.846 8.216-1.491 1.542.953 3.05 5.472 2.446 7.332-.29.89-3.472 3.418-7.074 5.618s-8.394 5.125-10.648 6.5c-2.81 1.714-5.074 4.317-7.202 8.28l-3.102 5.78-36.75 17.625-36.75 17.625v6.132c0 5.368-1.75 10.987-14.039 45.095-7.721 21.43-14.767 40.9-15.657 43.269-2.144 5.703-5.801 7.645-12.713 6.75-11.646-1.507-18.385-7.952-19.29-18.447-.364-4.217.304-8.712 2.689-18.109 1.745-6.875 3.746-13.4 4.447-14.5 1.67-2.618 4.563-14.248 4.563-18.338v-3.21l-16.75.274-16.75.274-.5 29.047c-.56 32.521-.493 32.214-8.005 36.957l-3.955 2.496h-53.52c-58.1 0-54.989-.318-52.406 5.351.613 1.345 2.075 2.91 3.25 3.48 3.12 1.51 315.665 1.569 318.979.059M355.847 507.868c-6.923-2.976-13.713-12.92-14.666-21.48-.375-3.372-1.367-6.2-2.68-7.645l-2.084-2.293 1.965-5.696c1.737-5.034 2.766-6.292 8.867-10.832 8.069-6.003 14.183-7.792 23.163-6.775 7.652.867 14.259 4.215 18.942 9.6 5.557 6.388 7.445 11.2 7.471 19.04.02 5.944-.202 6.75-1.856 6.75-2.174 0-3.937 1.89-6.091 6.53-2.2 4.74-8.611 11.396-12.569 13.05-4.385 1.832-15.949 1.692-20.462-.249m-104.233-78.555c-4.279-.892-5.22-1.644-9.804-7.827-5.11-6.894-6.963-11.183-6.963-16.124 0-2.017-.556-2.766-2.23-3.006-3.11-.446-4.252-4.317-2.83-9.594.81-3.012 2.79-5.886 6.715-9.749 3.06-3.012 6.158-5.477 6.884-5.477.725 0 1.913-.593 2.64-1.317 5.165-5.15 23.44-4.746 31.32.69 5.8 4 10.685 9.143 12.462 13.115 3.709 8.295 3.443 17.512-.506 17.512-1.723 0-4.726 3.236-5.05 5.442-.464 3.166-4.74 8.693-8.984 11.613-8.214 5.65-13.826 6.771-23.654 4.722M230.018 651.88c1.244-1.125 1.829-3.062 1.829-6.05 0-4.023-.277-4.51-3.25-5.719-1.788-.727-5.63-1.878-8.537-2.557-2.908-.68-5.838-1.786-6.51-2.459-.673-.672-2.4-1.518-3.839-1.88-1.439-.36-4.36-2.226-6.49-4.145s-4.156-3.499-4.5-3.512c-.346-.012-1.596-2.273-2.779-5.023-2.528-5.878-3.574-6.089-14.595-2.944a1870 1870 0 0 1-13.764 3.86c-3.72 1.025-7.433 2.418-8.25 3.096-1.184.982-1.486 4.054-1.486 15.11v13.878h35.171c31.324 0 35.372-.18 37-1.655m-57.968-53.256c1.263-.501 6.122-1.918 10.797-3.148s9.03-2.886 9.678-3.68c2.171-2.664 2.658-9.099.892-11.794-3.092-4.719-6.064-3.434-16.802 7.264-5.372 5.353-9.768 10.303-9.768 11 0 1.493 1.995 1.63 5.203.358m147.596-38.47c4.238-.896 5.05-1.37 4.05-2.37-1.74-1.74-7.959-1.56-10.627.308-2.713 1.9-3.09 5.022-.472 3.92.962-.405 4.135-1.241 7.05-1.857m-86.866-18.147c4.29-3.065 12.764-8.289 17.81-10.98 7.467-3.984 17.308-11.277 17.848-13.228 1.321-4.775-3.592-24.943-6.332-25.995-.956-.367-9.295 7.278-24.357 22.329-12.596 12.587-22.902 23.286-22.902 23.776s1.997 2.886 4.437 5.327c4.988 4.988 4.764 5.008 13.496-1.23" style="fill:#000" transform="translate(-150.84 -360.536)"/></svg>