<svg xmlns="http://www.w3.org/2000/svg" width="347.042" height="348"><path d="M162.964 344.955c-.678-.075-3.214-.309-5.636-.52-38.119-3.31-75.038-20.383-103.172-47.712C13.224 256.96-5.094 199.782 5.01 143.306c5.188-29.004 17.907-56.15 37.151-79.294 4.55-5.473 15.758-16.705 21.11-21.155 19.182-15.953 39.471-26.73 63.585-33.776 8.334-2.435 19.853-4.589 30.472-5.697 5.861-.612 26.548-.612 32.41 0 19.902 2.077 37.15 6.677 54.511 14.54 50.37 22.808 86.935 69.13 97.457 123.46 3.324 17.162 3.958 36.285 1.785 53.883-6.113 49.532-33.964 94.224-75.9 121.799-22.878 15.043-48.032 24.068-75.916 27.24-4.619.525-25.555.998-28.71.649m5.637-13.24v-3.54l-.969.218c-.533.12-2.665 1.089-4.739 2.152-4.399 2.257-6.88 2.982-10.307 3.013-3.401.03-2.073.481 2.98 1.011 4.804.504 12.397.985 12.77.81.146-.068.265-1.716.265-3.663m-24.711.634c-1.095-.45-2.905-1.335-4.023-1.966-2.58-1.456-4.242-2.04-7.125-2.5-3.463-.553-9.208.184-6.326.812.436.095 2.97.755 5.631 1.467 4.772 1.277 12.274 2.964 13.304 2.99.29.009-.367-.353-1.461-.803m62.847-.228c5.837-1.235 10.21-2.39 15.49-4.091l3.778-1.217-.885-2.363c-1.72-4.595-11.655-21.26-13.672-22.934-.527-.437-.574.146-.574 7.19v7.665l-4.35 7.613c-5.071 8.876-5.247 9.2-4.996 9.2.105 0 2.449-.478 5.209-1.063m-25.013-4.31c4.48-6.308 5.261-7.478 7.875-11.788l2.252-3.714v-30.67l-1.32-1.214c-.727-.667-2.496-1.712-3.93-2.321-1.526-.648-2.899-1.499-3.307-2.049l-.697-.94 1.514-2.759c2.865-5.222 18.057-31.313 24.99-42.918 3.82-6.394 7.705-12.946 8.634-14.561 1.915-3.328 3.389-4.655 8.53-7.68 2.702-1.591 3.72-2.455 5.795-4.919 1.384-1.643 2.8-3.14 3.148-3.326.686-.367 22.085-.483 23.018-.124.735.282.735 2.108 0 2.39-.306.118-1.015.214-1.574.214h-1.018l-.098 4.492-.099 4.491-3.787.1-3.787.1v75.011h2.466v-13.739h20.08v3.876h7.396l2.596-2.466 2.596-2.466 9.999-.005 9.999-.005 2.705-3.786c6.246-8.737 14.047-23.132 18.087-33.37 6.046-15.324 10.14-33.512 10.906-48.439.115-2.228.284-4.646.376-5.372l.167-1.321H178.112v76.972c0 42.335.067 76.973.149 76.973s1.64-2.1 3.463-4.668zm54.514-134.898c0-.617.328-1.8.73-2.629.583-1.205 1.129-1.703 2.73-2.489 1.91-.938 2.232-.982 7.108-.982 5.97 0 8.001.45 9.702 2.151 1.089 1.089 2.147 4.072 1.7 4.794-.094.152-5.075.276-11.07.276h-10.9zm-80.984 137.802c1.044-.196 4.038-1.37 6.654-2.611 2.615-1.24 5.191-2.352 5.724-2.47.935-.207.969-.293.969-2.497 0-2.12-.056-2.283-.778-2.283-.429 0-2.37.815-4.316 1.81-4.789 2.451-6.878 3.127-10.407 3.365-4.687.316-7.43-.308-12.639-2.877-2.462-1.215-5.31-2.387-6.328-2.606-2.596-.556-6.58-.494-9.024.143-2.201.573-9.278 4.186-8.77 4.477.165.095 1.332.511 2.591.924l2.29.752 1.937-.754c2.658-1.034 8.426-1.29 11.705-.52 1.304.306 4.157 1.46 6.341 2.566 5.516 2.793 9.253 3.479 14.051 2.58m1.124-7.79c.736-.19 3.244-1.285 5.573-2.43 2.33-1.147 4.778-2.187 5.442-2.311l1.208-.227v-2.426c0-1.815-.121-2.427-.48-2.427-.265 0-2.432.96-4.816 2.134-5.413 2.663-7.262 3.15-11.952 3.148-4.632-.003-5.419-.213-11.3-3.022-3.971-1.897-5.207-2.324-7.397-2.554-3.31-.348-6.438-.138-6.21.417.717 1.745.878 1.638-2.47 1.638-2.895 0-3.305.092-5.427 1.22-3.244 1.722-5.819 2.304-10.173 2.299-4.496-.005-6.352-.466-10.62-2.638-3.135-1.595-5.951-2.766-5.951-2.473 0 .445 11.2 6.28 16.688 8.695 2.985 1.314 3.275 1.376 4.732 1.01.854-.216 3.398-1.323 5.654-2.461 4.882-2.464 6.872-2.983 11.324-2.956 4.113.025 6.5.673 10.829 2.94 3.668 1.921 5.049 2.434 7.63 2.835 2.006.312 5.678.116 7.716-.411m90.777-5.064c9.93-5 22.102-13.14 30.773-20.579l4.142-3.553c.565-.485 1.026-1 1.024-1.145 0-.146-4.917-.265-10.924-.265h-10.92v12.682h-5.285V292.32h-8.454v2.466h-13.739v-2.466h-2.143c-1.179 0-2.09.13-2.026.29.234.575 14.916 26.476 15.01 26.48.054.003 1.197-.55 2.542-1.228m-135.315-2.16c.606-.12 1.101-.36 1.101-.533 0-.172-.577-1.183-1.283-2.246l-1.283-1.932-2.151-.006c-3.56-.01-6.628-.871-11.23-3.153-2.567-1.273-5.163-2.293-6.422-2.523-2.371-.434-7.562-.215-9.134.386l-1.031.394 2.871 1.923c2.497 1.672 3.095 1.922 4.586 1.922 2.748 0 6.844 1.241 10.368 3.14 1.8.971 4.142 1.998 5.204 2.284 2.012.54 6.504.725 8.404.345m43.766-.139c1.043-.197 3.569-1.214 5.614-2.26 2.045-1.044 4.542-2.169 5.55-2.498l1.83-.6v-2.073c0-1.667-.11-2.073-.564-2.073-.31 0-2.728.85-5.372 1.89-6.765 2.658-9.022 3.171-12.91 2.935-3.808-.232-6.7-1.09-9.927-2.948-3.56-2.048-5.206-2.602-8.404-2.828-2.988-.21-7.08.336-8.061 1.076-.469.353-.416.621.423 2.153l.957 1.75 4.932.038c5.605.043 6.845.368 11.901 3.124 1.608.877 3.79 1.826 4.847 2.11 2.278.613 6.531.707 9.184.204m-47.404-7.654c-.129-.34-.814-1.514-1.523-2.612-1.226-1.897-1.388-2.014-3.293-2.389-1.102-.217-3.663-1.249-5.692-2.293-2.028-1.045-4.529-2.15-5.557-2.455-2.492-.74-8.059-.734-10.573.012-2.408.715-7.167 3.302-6.782 3.687.16.159.906.748 1.66 1.31l1.372 1.022 2.605-.827c2.067-.657 3.385-.827 6.379-.823 4.745.006 6.478.468 11.829 3.162 4.053 2.041 5.242 2.395 9.332 2.777.315.03.398-.165.243-.571m49.419-.914c1.873-.66 5.07-1.843 7.105-2.628l3.699-1.429.103-2.49c.081-1.956-.003-2.491-.392-2.491-.273 0-2.419.946-4.77 2.103-5.538 2.726-7.51 3.283-11.674 3.296-4.4.014-6.465-.506-10.92-2.752-4.967-2.502-6.79-3-10.997-3-3.665 0-6.337.644-8.866 2.137l-1.257.74.893 1.762c.686 1.354 1.03 1.708 1.488 1.531 3.439-1.334 10.104-1.667 13.478-.675 1.052.31 3.546 1.436 5.541 2.503 6.045 3.232 10.325 3.591 16.569 1.393m-1.22-6.751c1.122-.292 3.494-1.305 5.27-2.251 1.777-.946 4.063-1.988 5.08-2.315l1.85-.596v-4.263l-1.145.187c-.63.104-2.873 1.003-4.984 2-4.618 2.18-7.156 2.825-11.147 2.832-3.966.007-6.158-.609-11.388-3.198-3.554-1.76-4.858-2.22-7.13-2.52-4.44-.586-7.1-.137-10.898 1.838l-3.233 1.682-2.114-3.39c-1.163-1.864-3.206-5.318-4.54-7.674l-2.427-4.283-2.466-.232c-3.561-.335-4.768-.787-6.24-2.333-.718-.755-1.631-1.374-2.029-1.374-.67 0-.62.203.695 2.819l1.417 2.818 3.43.009 3.431.009 2.433 4.13c1.338 2.271 3.661 6.242 5.163 8.823s2.808 4.771 2.904 4.867c.095.095 1.16-.325 2.368-.934 4.011-2.025 9.024-2.597 13.905-1.587 1.543.32 3.882 1.243 6.247 2.466 2.079 1.075 4.615 2.18 5.636 2.454 2.472.666 7.386.673 9.912.015zm-53.382-.452c-.065-.154-.99-1.66-2.055-3.345l-1.938-3.066-3.55-1.398c-6.814-2.682-9.945-2.685-16.892-.014-3.584 1.379-9.511 3.467-10.732 3.782-.418.108-.372.259.222.73a161 161 0 0 1 2.346 1.934l1.597 1.34 3.958-1.986c8.124-4.074 13.84-4.03 22.227.173 4.13 2.07 5.06 2.426 4.817 1.85m-42.162-12.767c-.19-4.175.504-9.26 1.595-11.69 3.258-7.26 9.436-10.938 19.237-11.455l3.833-.203-.238-1.266c-.545-2.908-3.074-7.806-7.984-15.464-1.528-2.383-3.855-6.513-5.173-9.177-5.167-10.452-7.334-12.36-14.053-12.374l-3.61-.008V210.59H97.44v-8.367l-1.97-.164c-2.042-.17-2.595-.574-2.604-1.906-.012-1.542.336-1.58 13.261-1.47l12.273.106 3.347 1.611c1.84.887 5.725 2.966 8.63 4.622 2.907 1.656 6.078 3.41 7.046 3.899.97.488 2.032 1.188 2.363 1.554s1.773 2.88 3.205 5.586c3.286 6.21 11.631 21.096 13.522 24.12.787 1.26 2.659 4.589 4.158 7.398 3.674 6.881 6.344 10.568 7.655 10.568.15 0 .274-17.913.274-39.807v-39.807H11.954l.133 2.906c1.774 38.936 18.051 76.913 44.618 104.098 2.32 2.374 4.232 4.315 4.249 4.315s-.026-1.273-.097-2.829m34.472-95.191c.003-2.803.763-4.112 3.046-5.236 1.568-.772 2.22-.851 7.944-.963 7.196-.141 8.886.21 10.865 2.252 1.084 1.118 1.208 1.462 1.334 3.69l.14 2.458H95.326v-2.201zm171.91 95.886c0-.635-4.245-6.011-6.867-8.698-2.316-2.372-2.599-2.554-3.978-2.554h-1.485v6.388l1.538-1.26c1.8-1.476 1.53-1.68 4.069 3.062l1.839 3.435h2.441c1.484 0 2.442-.146 2.442-.373m-7.416-.243c-.009-.146-.544-1.29-1.19-2.545l-1.172-2.28-1.276 1.276c-.994.994-1.276 1.557-1.276 2.545v1.268h2.466c1.356 0 2.458-.119 2.448-.264m14.246-.353c.299-.996 1.624-5.877 1.624-5.981 0-.053-2.22-.095-4.932-.095h-4.932v-5.284h-2.302c-2.705 0-2.73-.212.462 4.092 4.352 5.869 9.407 9.514 10.08 7.268m17.529-2.852c1.812-1.908 4.296-4.682 5.52-6.165l2.226-2.696h-14.427l-1.895 1.544c-3.063 2.494-5.741 6.436-6.79 9.993l-.234.793h12.305zm-57.121-14.497c0-9.688-.12-17.608-.265-17.6s-3.413 5.082-7.263 11.276c-6.948 11.18-6.995 11.27-6.548 12.404 1.411 3.574 4.333 9.146 5.376 10.252l1.209 1.282h7.491zm-66.933-3.836c.614-.17.914-.529.991-1.186.09-.775-.066-.992-.88-1.219-.546-.152-12.802-.276-27.236-.276s-26.69.124-27.236.276c-.814.227-.971.444-.88 1.22.076.656.377 1.015.99 1.185.485.133 12.691.243 27.126.243 14.434 0 26.64-.11 27.125-.243m-70.35-9.217c1.04-.205 4.831-2.044 9.863-4.784 9.104-4.957 13.464-7.632 13.78-8.454.292-.762-.736-2.943-3.404-7.221-1.253-2.01-2.953-4.963-3.779-6.564-1.918-3.72-3.263-5.567-4.687-6.435-1.09-.665-1.877-.692-20.641-.693H68.819l.22 1.145c.651 3.376 13.619 26.149 18.165 31.9l1.336 1.69 3.482-.124c1.915-.069 4.242-.275 5.171-.458zm-8.912-106.216c0-11.602.129-18.407.357-18.833.196-.367 1.787-1.406 3.536-2.309 3.309-1.709 4.476-2.98 4.03-4.387-.233-.732-5.204-5.439-10.918-10.336l-3.522-3.02-4.116-.008-4.115-.01-2.072-3.434-2.072-3.435-3.066-.102-3.065-.101-1.592-2.012c-.875-1.107-2.075-2.986-2.666-4.177-.921-1.855-1.058-2.479-.957-4.375l.118-2.211-6.73-5.84c-3.701-3.213-6.69-5.892-6.64-5.953.048-.061.7.054 1.445.255 1.457.393 3.945 1.896 9.797 5.917 2.031 1.396 4.358 2.716 5.17 2.935 3.38.91 9.122-1.392 20.446-8.199 3.357-2.018 8.006-4.667 10.33-5.886 2.326-1.22 5.694-3.09 7.486-4.155 5.072-3.018 7.78-5.727 5.725-5.727-.672 0-.704-.235-.704-5.108v-5.108h-1.366c-1.467 0-2.369-.702-2.032-1.581.177-.461 1.78-.533 11.855-.533 10.753 0 11.751.051 12.963.67 2.527 1.289 7.776 6.282 12.304 11.706.425.508.214.741-1.84 2.039-1.533.968-2.228 1.609-2.053 1.891.146.235 6.41 10.969 13.92 23.853l13.656 23.427-.925.758c-.508.417-3.462 2.082-6.563 3.7-3.101 1.616-6.367 3.595-7.259 4.397l-1.62 1.457-.106 8.85c-.06 5.017.05 9.693.254 10.794.438 2.367 1.944 5.45 4.382 8.97l1.83 2.642 2.985-.11c6.825-.253 12.02-1.227 13.14-2.464.55-.608.584-5.615.502-71.785l-.09-71.13-2.641.103c-31.518 1.237-63.57 12.78-89.348 32.174-8.573 6.45-19.9 17.157-26.6 25.143-19.132 22.804-31.559 50.204-36.027 79.438-.775 5.07-1.219 9.433-1.764 17.35l-.14 2.026h76.378ZM39.659 164.14c-9.302-3.662-16.934-8.99-21.563-15.058l-1.64-2.15 3.088-.22c1.7-.12 4.267-.463 5.706-.762 2.96-.616 7.985-2.21 8.234-2.613.09-.147-.298-1.459-.864-2.916-1.396-3.594-3.395-11.316-4.042-15.61-.67-4.44-.686-11.302-.036-14.699.51-2.665 2.53-8.377 2.96-8.37.132.002.704 1.516 1.27 3.366 1.273 4.147 3.927 9.753 5.975 12.617 1.765 2.47 4.86 5.505 6.453 6.328l1.088.563.242-3.249c.654-8.791 2.025-15.718 3.954-19.981l1.035-2.29.644 2.642c2.28 9.357 7.152 20.078 10.566 23.248.795.738.993.794 1.24.35.685-1.223 4.303-5.984 4.548-5.984.147 0 .62.376 1.052.836l.786.836-1.838 2.422c-1.01 1.333-2.372 3.255-3.025 4.272s-1.303 1.85-1.446 1.85-1.081-.72-2.086-1.598c-3.296-2.883-6.58-8.552-9.453-16.316-1.008-2.724-1.412-3.474-1.6-2.968-.703 1.902-2.076 14.027-2.08 18.366 0 1.11-.06 1.169-.969.955-1.777-.417-5.176-2.277-6.929-3.792-2.528-2.184-5.646-6.586-7.783-10.989l-1.872-3.856-.295 1.732c-.496 2.918-.284 10.959.39 14.767.782 4.427 2.615 10.846 4.378 15.337l1.357 3.457-2.057.923c-3.103 1.393-5.576 2.18-8.824 2.812-1.615.314-3.314.652-3.777.753l-.84.182 1.016 1.085c3.45 3.68 10.47 8.176 17.005 10.888 3.937 1.634 4.088 1.736 3.98 2.682-.062.54-.22 1.094-.352 1.228-.133.135-1.75-.35-3.597-1.076m24.279-80.846c-4.353-3.59-6.646-7.037-6.653-9.998l-.004-1.493 2.73.194c1.502.106 3.048.26 3.435.34.933.195 6.354-.224 6.848-.53.259-.16-.012-1.102-.82-2.856-1.799-3.902-2.428-6.402-2.263-8.99.078-1.227.214-2.3.302-2.383s1.825.23 3.86.697c2.034.468 5.23.95 7.102 1.071l3.404.221 1.099-2.177c4.443-8.8 12.311-18.411 20.276-24.763 3.537-2.821 7.084-5.03 11.36-7.071l3.732-1.783 1.409 1.729c2.29 2.811 6.46 6.665 8.252 7.625 3.016 1.617 2.885 1.656 5.373-1.576 4.773-6.196 11.385-11.82 16.592-14.113l1.98-.872-.731 2.69c-.588 2.164-.734 3.761-.747 8.151-.017 6.037.58 9.03 2.62 13.127l1.012 2.03-1.014.524c-.557.288-1.11.524-1.23.524-.38 0-2.554-5.033-3.123-7.234-.9-3.48-1.315-8.483-.978-11.789.168-1.647.28-3.03.25-3.072-.032-.043-.92.494-1.975 1.194-2.606 1.73-9.233 8.485-11.606 11.833-1.917 2.704-1.952 2.732-3.3 2.582-2.816-.312-5.803-2.208-9.864-6.258l-3.829-3.818-2.864 1.458c-7.218 3.675-14.18 9.398-20.196 16.6-2.63 3.15-7.469 10.325-9.266 13.741-.689 1.31-1.59 2.507-2.042 2.713-1.271.58-6.63.42-10.111-.299-1.744-.36-3.228-.604-3.299-.541-.547.487 2.125 7.61 4.117 10.975l1.09 1.84-1.307.348c-2.747.732-6.508 1.125-9.745 1.016-2.28-.076-3.363.012-3.363.275.004 1.011 4.092 5.443 6.829 7.4 1.002.717 1.007.739.4 1.666-.339.516-.805.939-1.035.939s-1.449-.85-2.707-1.887m38.787-37.615c0-2 .089-2.243 1.199-3.29 1.676-1.581 4.493-2.3 9.017-2.3s7.341.719 9.018 2.3c1.11 1.047 1.198 1.29 1.198 3.29v2.16h-20.432zm35.007 122.551c-.785-1.32-3.213-4.402-4.407-5.596-.77-.77-2.645-1.965-4.273-2.723-1.595-.743-3.852-2.076-5.014-2.964-3.8-2.901-11-10.836-12.935-14.257-.576-1.017-1.115-1.85-1.197-1.85-.461 0-2.976 1.856-3.614 2.667-.73.928-.749 1.248-.749 13.057v12.106h16.226c12.885 0 16.171-.09 15.963-.44m30.869-3.252v-3.692l-1.497.188-6.72.841c-2.871.36-5.3.732-5.397.829-.233.233 1.331 2.689 2.718 4.268l1.105 1.258h9.791zm19.379-50.999.003-54.69.876-1.883c.482-1.035 1.723-3.255 2.759-4.932s2.787-4.821 3.893-6.987c1.306-2.558 2.498-4.378 3.403-5.196l1.393-1.258h10.337c10.065 0 10.354.02 11.007.742.666.736.662.75-.473 1.699l-1.145.956v9.637h27.477V30.175l-5.02-2.395c-18.912-9.02-40.733-14.423-61.56-15.24l-2.642-.104-.088 78.117-.09 78.117h9.866l.003-54.69zm13.039-80.143c.04-1.21.882-3.588 1.51-4.26 1.685-1.806 2.484-1.992 8.521-1.992 5.041 0 5.785.078 7.046.738 1.632.857 2.508 2.174 2.845 4.283l.24 1.496h-10.086c-5.546 0-10.08-.12-10.076-.265m28.077 132.985c-.646-1.017-2.342-3.91-3.768-6.43a703 703 0 0 0-4.82-8.362 155 155 0 0 1-4.206-7.75c-3.624-7.26-6.973-11.54-9.032-11.54-.588 0-.623 1.02-.623 17.965v17.966h23.624zm105.704-2.818c-1.641-29.817-12.372-59.972-30.068-84.501-6.802-9.429-19.21-22.733-27.748-29.756-6.708-5.516-16.138-12.065-23.22-16.125l-1.674-.96v19.406H269.6l1.398 1.013c2.166 1.57 5.368 6.837 5.962 9.81l.219 1.092-5.763.128c-5.594.124-5.83.16-8.115 1.23-3.002 1.408-4.516 1.766-4.516 1.07 0-.28-.329-.927-.73-1.438-.672-.854-.94-.928-3.347-.928h-2.617v7.421c0 4.442.147 7.695.365 8.103.202.377.735.68 1.195.68.457 0 .927.252 1.045.558s.214 2.903.214 5.77c0 5.547-.056 5.738-1.805 6.177-.826.207-.96.48-1.327 2.7-.466 2.823-1.322 4.694-3.004 6.565-2.446 2.72-3.024 3.89-3.024 6.121 0 3.77 1.688 6.28 4.223 6.28.79 0 1.961-.219 2.603-.487 1.161-.485 1.167-.5 1.375-3.45.117-1.653.538-3.841.954-4.951.798-2.133 2.692-4.145 3.902-4.145.775 0 .773.195-.059 8.196-.839 8.072-2.85 11.617-7.14 12.578-2.999.672-5.252-.077-7.406-2.462-2.46-2.722-3.53-6.462-3.325-11.622.156-3.944.548-4.9 3.394-8.27 2.767-3.277 3.237-4.058 3.239-5.378 0-.63-.08-1.145-.178-1.145-.099 0-3.03 1.427-6.513 3.17-3.484 1.744-6.455 3.17-6.602 3.168-.147-.003-.528-.624-.847-1.382-.517-1.232-.741-1.402-2.113-1.603-.844-.124-2.803-.176-4.353-.116l-2.819.11-.093 11.004-.093 11.004 2.142 4.274c1.179 2.35 4.617 8.574 7.64 13.831a2964 2964 0 0 1 9.082 15.899c1.97 3.487 4.313 7.48 5.207 8.874s2.102 3.48 2.685 4.635 1.264 2.182 1.513 2.282 19 .194 41.67.21l41.22.027zm-207.063-22.47c0-10.306-.036-10.914-.617-10.597-1.763.961-11.467 7.672-11.458 7.924.016.417 11.442 13.606 11.788 13.606.158 0 .287-4.92.287-10.933m-21.225-20.398c3.759-1.818 12.796-6.957 16.918-9.62l3.268-2.111-.883-1.506c-.485-.828-2.138-3.51-3.673-5.96l-2.79-4.455-4.122 6.707-4.122 6.707h-10.18c-5.6 0-10.18.138-10.18.308 0 .79 11.632 11.317 12.505 11.317.214 0 1.68-.624 3.259-1.387m-4.536-20.96c2.178-1.125 5.048-5.1 8.357-11.568l1.992-3.895-1.013-1.906c-.978-1.841-2.268-2.91-3.514-2.91-.576 0-17.92 9.455-25.465 13.882-4.771 2.8-6.733 4.512-6.733 5.876v1.027h12.7c10.344 0 12.88-.094 13.676-.506M243.245 82.76c1.18-1.333 2.624-2.62 3.206-2.861l1.06-.44V64.045h-23.603v21.137h17.189z" style="fill:#000;stroke-width:.352277"/></svg>