<svg xmlns="http://www.w3.org/2000/svg" width="347.042" height="348"><path d="m278.066 456.725-2.923-2.923v-53.077c0-49.881.105-53.077 1.75-53.082 2.058-.006 12.983 3.375 45.66 14.133 13.152 4.33 25.1 7.872 26.55 7.872 1.452 0 3.067.368 3.59.818s4.55 1.865 8.95 3.146 13.175 4.035 19.5 6.123 18.925 6.114 28 8.948 17.85 5.762 19.5 6.507c1.65.744 15.15 5.233 30 9.974s28.125 9.17 29.5 9.84l2.5 1.219.27 19.055.272 19.055-2.657 2.657-2.658 2.658H280.99zm207.248-2.732c1.633-1.478 1.829-3.447 1.829-18.378 0-12.168-.34-17-1.25-17.74-.688-.56-6.875-2.876-13.75-5.148-6.875-2.27-13.4-4.5-14.5-4.955-8.674-3.585-64.731-21.25-65.95-20.782-.852.327-1.55 1.184-1.55 1.904 0 1.766-4.671 6.692-9.249 9.754-2.055 1.375-3.74 2.837-3.744 3.25s-.682.75-1.507.75-1.5.367-1.5.816-1.913 1.876-4.25 3.171c-2.338 1.296-7.625 4.832-11.75 7.86a2168 2168 0 0 1-11 8.025c-1.925 1.387-3.725 2.825-4 3.194-.275.37-2.8 2.08-5.61 3.803-6.965 4.266-12.888 4.337-17.31.205-1.723-1.609-3.624-4.336-4.225-6.06-.665-1.907-1.603-2.94-2.393-2.638-1.832.703-32.804 22.853-33.697 24.099-1.411 1.97-.75 6.541 1.235 8.525 1.973 1.973 3.333 2 102.171 2 91.807 0 100.324-.138 102-1.655m-195.683-47.345c.763 0 8.756-5.42 10.687-7.247.729-.689 3.8-2.921 6.825-4.96 23.103-15.574 25.886-18.032 26.282-23.216.205-2.697-.182-2.997-6.782-5.252-8.804-3.007-21.917-7.197-26.5-8.467-1.925-.533-6.83-2.092-10.901-3.463s-8.008-2.26-8.75-1.976c-1.09.419-1.35 6.244-1.35 30.383 0 16.425.297 30.16.659 30.522.361.362 2.575-.913 4.918-2.833s4.554-3.491 4.912-3.491m190.185.435c-5.154-1.407-7.672-2.984-7.676-4.808 0-.62 1.387-5.516 3.086-10.88 3.473-10.971 4.746-12.014 12.007-9.838l3.91 1.171v11.305c0 9.682-.263 11.543-1.829 12.96-2.09 1.892-2.865 1.9-9.498.09m7.327-12.435v-11h-2.477c-3.037 0-4.612 2.42-7.056 10.843-2.424 8.356-.883 10.695 7.283 11.057 2.203.098 2.25-.13 2.25-10.9m-39.359 2.072c-11.1-3.89-12.6-4.93-12.626-8.765-.023-3.28 5.037-16.613 6.879-18.127 2.107-1.731 7.103-.952 18.92 2.951 11.892 3.928 12.206 4.572 8.087 16.577-3.111 9.067-4.796 11.336-8.342 11.23-1.133-.033-6.946-1.773-12.918-3.866m17.741-7.468c1.44-4.618 2.618-8.882 2.618-9.475 0-1.43-3.952-3.325-12.627-6.057-10.503-3.307-11.142-3.03-14.448 6.275-1.533 4.316-2.56 8.441-2.282 9.166.53 1.38 18.292 8.129 21.989 8.356 1.829.112 2.505-1.063 4.75-8.265m-55.882-4.95-12-4.244.105-3.607c.058-1.984.481-4.439.94-5.455.46-1.016 1.762-4.512 2.895-7.769 2.682-7.71 3.774-8.306 11.15-6.09 19.532 5.866 21.894 6.909 22.23 9.816.294 2.541-3.759 16.472-5.667 19.48-1.767 2.787-7.503 2.164-19.653-2.132m19.731-7.642c1.54-4.668 2.588-9.042 2.328-9.72s-1.73-1.515-3.266-1.86-6.49-1.988-11.01-3.65c-4.518-1.662-8.808-2.795-9.533-2.517s-2.646 4.423-4.27 9.21c-2.873 8.461-2.902 8.743-1.061 10.09 1.041.76 4.41 2.092 7.487 2.958s7.169 2.212 9.094 2.993c6.242 2.531 7.137 1.875 10.231-7.503m-49.231-1.707a985 985 0 0 1-9-2.944c-2.475-.825-5.625-1.767-7-2.092-2.685-.634-4.96-3.032-4.486-4.727 2.544-9.098 6.312-19.315 7.486-20.298 2.245-1.88 12.321.41 23.651 5.375 1.733.76 3.885 1.38 4.781 1.38.897 0 1.893.683 2.213 1.518.714 1.86-6.139 21.544-7.887 22.654-1.711 1.086-4.419.846-9.758-.866m13.557-15.65c1.214-3.879.856-5.655-1.14-5.655-1.013 0-1.417 1.284-1.417 4.5 0 5.324 1.097 5.82 2.557 1.156m88.443 15.293c-3.025-1.09-8.2-2.69-11.5-3.558s-6.9-1.923-8-2.345-3.8-1.321-6-1.998c-2.2-.676-7.6-2.494-12-4.039s-14.975-5.084-23.5-7.863-18.2-5.976-21.5-7.104-12.75-4.1-21-6.606-18.375-5.621-22.5-6.923-11.1-3.488-15.5-4.859-9.998-3.23-12.44-4.133c-7.084-2.619-11.244-.591-7.432 3.622 1.508 1.666 1.477 2.188-.425 7.078a560 560 0 0 0-4.035 10.78l-1.983 5.5-5.342-.146c-5.83-.16-19.285-4.367-21.704-6.787-1.352-1.351-1.146-2.613 1.923-11.785 2.096-6.261 4.377-11.156 5.844-12.536 2.045-1.925 2.242-2.625 1.314-4.662-.698-1.533-2.286-2.644-4.406-3.082-3.152-.651-9.277-2.54-13.064-4.028-1.352-.531-1.75-.176-1.75 1.559 0 2.77 2.637 4.893 6.127 4.935 4.46.054 5.224 2.108 3.046 8.187-1.053 2.94-2.902 8.12-4.108 11.512-3.262 9.173-7.065 9.858-7.065 1.274v-4.941h-63.845c-60.582 0-63.93-.094-65.5-1.829-1.518-1.677-1.655-10.597-1.655-107.811 0-105.276.013-105.998 2.039-108.172l2.039-2.188h104.47c103.783 0 104.483.013 106.212 2.032 1.602 1.871 1.78 7.08 2.24 65.75l.5 63.718 62.337.5 62.337.5 2.413 2.806 2.413 2.805v61.873c0 54.915-.177 62.05-1.572 63.444-.864.865-1.651 1.556-1.75 1.536s-2.653-.927-5.678-2.016m5-24.948c0-17.739-.286-22.998-1.25-22.99-.688.005-3.725 1.168-6.75 2.584-3.025 1.415-7.525 3.264-10 4.108s-7.2 2.784-10.5 4.311c-17.264 7.99-20.403 9.275-25.017 10.246-6.492 1.366-11.223-.672-14.31-6.165-3.665-6.52-4.14-6.598-11.279-1.827-3.517 2.35-6.394 4.704-6.394 5.23s2.25 1.463 5 2.084c2.75.62 11.3 3.266 19 5.881s16.7 5.567 20 6.56c7.656 2.306 20.404 6.754 23 8.025 2.092 1.025 15.087 4.682 17.25 4.854.967.076 1.25-5.115 1.25-22.901m-173.096-6.75c1.251-3.713 2.744-7.732 3.318-8.933 1.957-4.092.439-5.317-6.586-5.317-5.544 0-6.75-.341-8.781-2.483-4.545-4.79-5.39-3.983-9.83 9.381-2.231 6.718-2.112 9.102.457 9.102.85 0 2.326.403 3.281.896 2.572 1.326 11.428 3.898 13.802 4.008 1.684.078 2.484-1.149 4.34-6.654m-31.416-17.858c1.803-6.201 1.824-6.062-.988-6.547-1.799-.31-2.03.284-2.298 5.905-.372 7.81 1.118 8.101 3.286.642m-7.488.608v-3h-63.5c-67.417 0-66.428-.07-61.929 4.428 1.395 1.395 8.535 1.572 63.5 1.572h61.929zm81.69-7.936c7.046-4.914 13.981-9.844 15.413-10.954s3.795-2.562 5.25-3.225c1.485-.677 2.647-2.025 2.647-3.07 0-2.297-3.426-3.69-10.896-4.433l-5.604-.557-16 10.706c-15.336 10.261-21.41 14.955-20.447 15.802.998.878 12.599 4.515 14.638 4.588 1.228.044 7.817-3.846 15-8.857m93.257-.542c3.237-1.362 11.135-4.962 17.55-8 6.415-3.037 11.897-5.522 12.182-5.522s2.05-.726 3.92-1.614l3.4-1.614v-24.386c0-23.053-.108-24.495-2-26.386-1.972-1.973-3.332-2-101.545-2h-99.545l-2.471 2.47-2.47 2.472.265 26.67c.225 22.526.5 26.787 1.767 27.417.825.41 4.569 1.757 8.32 2.993l6.82 2.247 3.722-3.635c2.047-1.999 4.032-3.634 4.41-3.634s3.059-1.798 5.958-3.996 5.635-3.997 6.08-4c.446-.002 5.306-3.042 10.8-6.754 5.494-3.713 10.755-7.2 11.69-7.75s1.925-1.265 2.2-1.589c.275-.323 3.946-2.948 8.158-5.833 8.748-5.99 13.752-7.225 19.626-4.846 5.886 2.385 10.677 3.768 13.05 3.768 1.206 0 2.974.413 3.93.919.954.505 5.56 1.916 10.236 3.136 4.675 1.22 10.75 2.898 13.5 3.728 4.906 1.481 9.5 4.634 9.5 6.52 0 .525 1.687 3.484 3.75 6.576s5.287 8.69 7.166 12.443c4.275 8.538 8.036 12.678 11.515 12.678 1.446 0 5.278-1.115 8.516-2.478m-5.947-17.165c-.825-.266-3.463-1.412-5.862-2.547-5.664-2.678-8.623-8.676-7.728-15.663.327-2.556.706-6.585.842-8.954.295-5.131 2.636-7.338 10.454-9.855 13.285-4.277 27.321 5.691 27.28 19.372-.02 6.059-1.814 9.689-5.011 10.136-1.361.19-2.833.974-3.27 1.741-.963 1.691-11.082 6.444-13.485 6.334-.946-.043-2.395-.297-3.22-.564m-267-3.513c0-4.927.233-5.374 5.25-10.085 2.887-2.71 7.5-6.746 10.25-8.969 13.932-11.259 25.5-22.145 25.5-23.996 0-2.405-9.076-15.794-10.706-15.794-2.065 0-12.029 8.482-22.08 18.797-7.717 7.92-8.608 8.534-13 8.948-4.44.418-5.282.066-14.464-6.042l-9.75-6.485v48.782h29zm98-20.767v-25.923l3.077-3.077 3.077-3.077h75.846v-28c0-24.222-.203-28-1.5-28-.825 0-1.5.743-1.5 1.65 0 .908-1.189 4.08-2.642 7.05-3.701 7.565-9.266 11.3-16.838 11.3-8.616 0-14.827-4.353-17.646-12.367-.749-2.127-2.264-4.2-3.367-4.608s-7.857-1.285-15.007-1.95c-7.15-.666-17.145-1.63-22.21-2.143-12.573-1.272-14.896-1.183-16.719.64-2.59 2.59-1.822 4.26 3.179 6.92 2.612 1.39 5.513 3.067 6.446 3.728 1.354.959 2.42.856 5.284-.51 1.973-.94 5.807-1.71 8.52-1.71 4.771 0 12 2.521 12 4.185 0 1.483 3.774.845 4.383-.74.449-1.17 1.774-1.48 5.357-1.25l4.76.305v5.5c0 5.363-.093 5.546-3.75 7.332-3.075 1.503-3.75 2.365-3.75 4.79 0 6.01-5.293 13.456-11.998 16.877-4.898 2.499-7.603 2.51-14.567.063-5.815-2.044-8.633-4.538-10.954-9.695-.903-2.005-2.408-3.383-4.184-3.829-1.525-.382-6.777-2.685-11.67-5.117-4.895-2.432-9.86-4.421-11.035-4.421-3.048 0-9.593 5.68-9.59 8.323.003 2.057 3.844 8.566 15.099 25.584 4.254 6.433 4.899 8.078 4.899 12.5 0 5.022-.1 5.187-7.25 11.973-3.988 3.784-13.1 11.937-20.25 18.116s-13.857 12.197-14.905 13.37l-1.905 2.134h71.31zm-101.354-41.64c.63-.844 2.58-6.126 4.331-11.736 4.927-15.778 6.677-18.66 15.626-25.745 11.675-9.24 23.051-18.52 23.897-19.493 2.337-2.688 18.266-15.333 21.2-16.83 3.622-1.848 11.117-2.095 21.108-.696 3.68.516 14.117 1.678 23.192 2.584 29.793 2.973 35.658 4.014 39.14 6.943 1.711 1.44 3.617 2.404 4.236 2.142s2.84-1.035 4.938-1.719c4.405-1.435 8.507-.352 15.048 3.973 3.581 2.368 3.953 2.43 5.11.847.687-.939 2.211-1.707 3.388-1.707 2.134 0 2.14-.07 2.14-27.443 0-27.226-.018-27.456-2.223-29-1.975-1.384-13.349-1.557-102.389-1.557-93.918 0-100.3.11-102.298 1.75l-2.131 1.75.27 53.43.27 53.428 6.5 4.481c3.576 2.465 7.626 5.1 9 5.856 2.935 1.613 7.997.953 9.647-1.258m88.63-80.934c-4.367-3.737-7.544-10.763-6.563-14.514.305-1.166-.014-3.182-.708-4.479-3.64-6.803 10.746-15.226 21.282-12.462 5.456 1.432 11.089 5.308 12.698 8.738 3.166 6.747 3.033 13.214-.272 13.214-.67 0-2.284 2.012-3.588 4.47-2.77 5.222-8.494 8.53-14.76 8.53-3.13 0-4.897-.763-8.09-3.497m29.12 75.143c4.14-3.157 6.88-8.774 6.868-14.085-.01-4.497.913-5.523 4.986-5.546 2.59-.014 2.75-.276 2.75-4.515 0-4.752-1.57-5.93-4-3-1.627 1.96-6.956 1.92-9.804-.075-3.046-2.134-12.377-3.007-16.017-1.5-2.766 1.146-2.92 1.552-3.515 9.268-.501 6.507-.303 8.61 1.026 10.86 2.199 3.722 5.141 5.157 9.778 4.768 7.801-.654 10.791-10.81 4.971-16.884-4.685-4.89-9.44-3.487-9.44 2.788 0 2.638.524 3.523 2.536 4.288 1.394.53 2.856.916 3.25.857 1.981-.296 3.266.238 2.715 1.13-.34.55-2.127 1-3.97 1-3.935 0-8.53-4.62-8.53-8.577 0-5.676 7.88-8.379 13.96-4.788 5.66 3.344 7.721 11.213 4.546 17.354-2.309 4.463-5.28 6.011-11.54 6.011-6.121 0-8.645-1.545-11.481-7.029-1.656-3.203-3.485-3.94-3.485-1.405 0 4.004 5.93 10.347 10.855 11.614 4.5 1.157 10.07.115 13.542-2.533m48.04-24.055c4.014-1.677 9.39-7.049 10.172-10.164.307-1.224.633-3.733.725-5.576.15-3.009.5-3.383 3.417-3.664 3.131-.302 3.25-.476 3.25-4.75 0-4.62-.885-5.486-3-2.937-1.776 2.14-2.903 1.924-10.43-2-10.469-5.457-16.445-4.34-17.752 3.318-.417 2.442-2.092 6.002-3.894 8.277l-3.162 3.993 1.644 4.305c2.01 5.261 5.38 8.576 9.779 9.617 4.88 1.156 5.556 1.125 9.251-.42m-9.406-4.87c-5.5-2.784-8.918-11.745-4.78-12.534 1.389-.265 1.75.368 1.75 3.065 0 8.005 9.907 10.696 13.537 3.676 3.168-6.127.537-12.928-5.002-12.928-4.292 0-5.93 6.867-1.997 8.376 1.881.722 1.909 3.624.034 3.624-2.053 0-5.572-4.85-5.572-7.68 0-1.326 1.137-3.549 2.528-4.939 2.083-2.083 3.095-2.404 5.75-1.827 6.458 1.405 7.59 2.243 8.728 6.467 2.726 10.124-6.371 19.054-14.976 14.7m9.47 163.318c-4.4-1.554-10.194-3.436-12.876-4.182s-5.112-1.973-5.402-2.725c-.578-1.5 3.354-15.976 5.517-20.31.745-1.495 2.213-2.99 3.263-3.323s6.765.817 12.703 2.556a6556 6556 0 0 0 14.045 4.1c2.927.846 3.25 1.314 3.25 4.717 0 4.528-4.326 17.725-6.653 20.297-2.186 2.415-4.298 2.243-13.847-1.13m-7.573-8.79c-.04-1.512-.4-5.037-.8-7.833s-.405-6.284-.013-7.75c1.222-4.568-.86-2.917-2.627 2.084-.924 2.612-2.086 5.784-2.583 7.047-1.514 3.846-1.1 8.005.846 8.514 4.283 1.119 5.251.734 5.177-2.061" style="fill:#000" transform="translate(-144.143 -111.648)"/></svg>