<svg xmlns="http://www.w3.org/2000/svg" viewBox="0 0 118.768 63.584"><path style="opacity:1;fill-opacity:1;stroke:none;stroke-width:0;stroke-linecap:square;stroke-linejoin:miter;stroke-miterlimit:4;stroke-dasharray:none;stroke-opacity:1;paint-order:normal" d="M300.963 438.191V676.51h134.892V438.19Zm37.654 10.72c1.208 0 10.278 3.737 15.729 6.482 17.06 8.588 31.878 22.142 36.004 32.93 3.755 9.82 1.252 20.302-6.998 29.306-2.158 2.354-8.192 8.023-13.41 12.598-18.208 15.96-23.791 25.714-23.717 41.43.039 8.242 1.67 14.101 6.08 21.818 1.529 2.676 2.596 4.846 2.37 4.822-2.249-.243-10.457-4.302-15.163-7.498-4.746-3.223-13.006-12.052-15.87-16.961-6.453-11.065-7.742-25.648-3.484-39.436.68-2.203 3.246-8.566 5.7-14.14 2.453-5.574 5.346-12.619 6.431-15.655l1.973-5.52 1.629 3.009c2.447 4.515 4.366 11.08 4.802 16.435l.389 4.782 3.455-3.456c3.909-3.907 6.364-8.514 8.293-15.566 1.93-7.054 1.89-20.303-.082-27.754-2.483-9.38-8.157-20.727-12.793-25.586-1.07-1.122-1.672-2.04-1.338-2.04zm67.14 54.777c1.084.018 8.336 10.533 11.32 16.484 5.179 10.332 6.158 14.695 6.21 27.627.039 9.514-.115 11.182-1.426 15.355-4.94 15.731-16.354 28.117-30.873 33.502-7.5 2.782-7.164 2.845-8.529-1.625-1.597-5.231-1.613-15.565-.027-20.863 1.533-5.13 6.464-14.768 11.802-23.07 8.425-13.103 11.27-19.93 12.493-29.98.553-4.55.493-6.622-.323-11.35-.549-3.182-.878-5.903-.732-6.05a.114.114 0 0 1 .086-.03z" transform="matrix(.26458 0 0 .26458 -38.091 -115.674)"/><path style="opacity:1;fill-opacity:1;stroke:none;stroke-width:.09827963;stroke-linejoin:bevel;stroke-miterlimit:4;stroke-dasharray:none;stroke-opacity:1" d="M38.356 134.406h35.688v44.569H38.356zM120.906 134.406h35.688v44.569h-35.688z" transform="translate(-38.091 -115.674)"/></svg>