<?xml version="1.0" encoding="UTF-8" standalone="no"?>
<!-- Created with Inkscape (http://www.inkscape.org/) -->

<svg
   xmlns:dc="http://purl.org/dc/elements/1.1/"
   xmlns:cc="http://creativecommons.org/ns#"
   xmlns:rdf="http://www.w3.org/1999/02/22-rdf-syntax-ns#"
   xmlns:svg="http://www.w3.org/2000/svg"
   xmlns="http://www.w3.org/2000/svg"
   xmlns:sodipodi="http://sodipodi.sourceforge.net/DTD/sodipodi-0.dtd"
   xmlns:inkscape="http://www.inkscape.org/namespaces/inkscape"
   viewBox="0 0 118.76751 63.584234"
   version="1.1"
   id="svg8"
   inkscape:version="0.92.5 (2060ec1f9f, 2020-04-08)"
   sodipodi:docname="logo-2.svg">
  <defs
     id="defs2" />
  <sodipodi:namedview
     id="base"
     pagecolor="#ffffff"
     bordercolor="#666666"
     borderopacity="1.0"
     inkscape:pageopacity="0.0"
     inkscape:pageshadow="2"
     inkscape:zoom="2"
     inkscape:cx="14.735805"
     inkscape:cy="-219.16845"
     inkscape:document-units="mm"
     inkscape:current-layer="layer1"
     showgrid="false"
     inkscape:window-width="3840"
     inkscape:window-height="2089"
     inkscape:window-x="0"
     inkscape:window-y="34"
     inkscape:window-maximized="1"
     units="px"
     fit-margin-top="1"
     fit-margin-left="1"
     fit-margin-bottom="1"
     fit-margin-right="1" />
  <metadata
     id="metadata5">
    <rdf:RDF>
      <cc:Work
         rdf:about="">
        <dc:format>image/svg+xml</dc:format>
        <dc:type
           rdf:resource="http://purl.org/dc/dcmitype/StillImage" />
        <dc:title></dc:title>
      </cc:Work>
    </rdf:RDF>
  </metadata>
  <g
     inkscape:label="Ebene 1"
     inkscape:groupmode="layer"
     id="layer1"
     transform="translate(-38.090992,-115.67356)">
    <path
       style="opacity:1;fill-opacity:1;stroke:none;stroke-width:0;stroke-linecap:square;stroke-linejoin:miter;stroke-miterlimit:4;stroke-dasharray:none;stroke-opacity:1;paint-order:normal"
       d="M 300.96289,438.19141 V 676.50977 H 435.85547 V 438.19141 Z m 37.6543,10.71875 c 1.20824,0 10.27744,3.73807 15.72851,6.48242 17.0598,8.58879 31.87859,22.14276 36.00391,32.92969 3.75583,9.82068 1.25247,20.30267 -6.99805,29.30664 -2.1575,2.35453 -8.19192,8.0234 -13.41015,12.59765 -18.20713,15.96012 -23.7908,25.71475 -23.7168,41.42969 0.0389,8.24236 1.67077,14.1017 6.08008,21.81836 1.5292,2.67621 2.5965,4.84649 2.37109,4.82227 -2.2498,-0.24303 -10.4576,-4.30155 -15.16406,-7.49805 -4.74554,-3.22311 -13.00615,-12.05209 -15.86914,-16.96094 -6.4537,-11.06521 -7.74288,-25.64809 -3.48438,-39.43555 0.68043,-2.20301 3.24586,-8.56646 5.69922,-14.14062 2.45337,-5.57416 5.34702,-12.61877 6.43164,-15.6543 l 1.97266,-5.51953 1.6289,3.00781 c 2.44701,4.51503 4.36628,11.08113 4.80274,16.43555 l 0.38867,4.78125 3.45508,-3.45508 c 3.90871,-3.90724 6.36382,-8.51452 8.29297,-15.5664 1.92975,-7.05411 1.89066,-20.30272 -0.082,-27.75391 -2.48311,-9.37988 -8.15719,-20.72694 -12.79297,-25.58594 -1.07074,-1.12229 -1.67249,-2.04101 -1.33789,-2.04101 z m 67.14062,54.77734 c 1.08276,0.0189 8.33526,10.5337 11.31836,16.48438 5.17943,10.3319 6.15844,14.69477 6.21094,27.62695 0.0386,9.51432 -0.11531,11.18204 -1.42578,15.35547 -4.93988,15.73096 -16.35448,28.1165 -30.87305,33.50195 -7.50017,2.78207 -7.16447,2.84486 -8.5293,-1.625 -1.5973,-5.23124 -1.61285,-15.56559 -0.0273,-20.86328 1.53301,-5.12912 6.46408,-14.76771 11.80274,-23.07031 8.42483,-13.10223 11.27022,-19.93018 12.49218,-29.98047 0.55325,-4.5501 0.49381,-6.62135 -0.32226,-11.34961 -0.54902,-3.18123 -0.87839,-5.9029 -0.73242,-6.04883 0.0227,-0.0227 0.0512,-0.0312 0.0859,-0.0312 z"
       transform="scale(0.26458333)"
       id="rect911"
       inkscape:connector-curvature="0" />
    <rect
       style="opacity:1;fill-opacity:1;stroke:none;stroke-width:0.09827963;stroke-linejoin:bevel;stroke-miterlimit:4;stroke-dasharray:none;stroke-opacity:1"
       id="rect824"
       width="35.688366"
       height="44.568726"
       x="38.355576"
       y="134.40636" />
    <rect
       y="134.40636"
       x="120.90556"
       height="44.568726"
       width="35.688366"
       id="rect826"
       style="opacity:1;fill-opacity:1;stroke:none;stroke-width:0.09827963;stroke-linejoin:bevel;stroke-miterlimit:4;stroke-dasharray:none;stroke-opacity:1" />
  </g>
</svg>
