<svg xmlns="http://www.w3.org/2000/svg" width="256" height="256" viewBox="3781 111 256 256"><g fill="none" fill-rule="evenodd" transform="translate(3781 111)"><rect width="256" height="256" fill="#A56EE3" rx="40"/><path fill="#FFF" d="M218 102.603v79.754q0 6.63-4.721 11.35-4.72 4.722-11.35 4.722H54.07q-6.63 0-11.35-4.721-4.72-4.722-4.721-11.35v-79.755q4.42 4.92 10.145 8.739 36.362 24.71 49.922 34.654 5.725 4.218 9.291 6.579t9.492 4.821 11.05 2.461h.2q5.124 0 11.05-2.46 5.926-2.462 9.492-4.822 3.565-2.36 9.291-6.58 17.076-12.354 50.022-34.653 5.726-3.918 10.045-8.74Zm0-29.532q0 7.935-4.922 15.168t-12.254 12.355a81113 81113 0 0 0-47.01 32.645q-1.004.703-4.268 3.063a210 210 0 0 1-5.424 3.817q-2.16 1.457-5.224 3.265t-5.775 2.712-5.023.904h-.2q-2.31 0-5.023-.904-2.712-.905-5.775-2.712t-5.224-3.265a210 210 0 0 1-5.424-3.817 445 445 0 0 0-4.269-3.063q-9.14-6.428-26.317-18.332-17.175-11.903-20.591-14.313-6.229-4.22-11.752-11.602Q38 81.609 38 75.282q0-7.836 4.169-13.059T54.07 57h147.86q6.528 0 11.3 4.721 4.77 4.72 4.771 11.35Z"/></g></svg>