<svg xmlns="http://www.w3.org/2000/svg" width="256" height="256" viewBox="-2 111 256 256"><g fill="none" fill-rule="evenodd" transform="translate(-2 111)"><rect width="256" height="256" fill="#1DA1F2" rx="40"/><path fill="#FFF" d="M218 74.655a75.7 75.7 0 0 1-18.503 18.298q.115 1.535.115 4.602 0 14.244-4.34 28.433t-13.192 27.229a108.5 108.5 0 0 1-21.072 23.064q-12.222 10.026-29.467 15.997-17.247 5.972-36.891 5.972-30.952 0-56.65-15.888 3.998.439 8.909.439 25.698 0 45.8-15.121-11.993-.22-21.473-7.067-9.48-6.849-13.02-17.477 3.769.548 6.967.548 4.911 0 9.708-1.205-12.792-2.52-21.187-12.217-8.394-9.697-8.394-22.517v-.438q7.766 4.163 16.675 4.492-7.538-4.821-11.993-12.6-4.455-7.78-4.454-16.874 0-9.643 5.025-17.86Q64.384 80.791 84.2 90.597t42.43 10.902q-.913-4.163-.913-8.108 0-14.682 10.793-25.037T162.607 58q15.99 0 26.954 11.176a74.2 74.2 0 0 0 23.414-8.546q-4.227 12.6-16.219 19.503 10.623-1.095 21.244-5.478"/></g></svg>