<svg xmlns="http://www.w3.org/2000/svg" width="256" height="256"><g fill="none" fill-rule="evenodd"><rect width="256" height="256" fill="#57BA63" rx="40"/><path fill="#FFF" d="M129.272 194.394c-12.05 0-23.372-3.08-33.222-8.485L58 198l12.404-36.59a67.5 67.5 0 0 1-9.86-35.213c0-37.665 30.77-68.197 68.73-68.197C167.23 58 198 88.532 198 126.197s-30.769 68.197-68.728 68.197M129 69c-31.984 0-58 25.795-58 57.5 0 12.581 4.105 24.233 11.047 33.713l-7.245 21.353 22.288-7.077A58 58 0 0 0 129 184c31.98 0 58-25.793 58-57.498C187 94.796 160.98 69 129 69m34.758 72.607c-.42-.692-1.535-1.11-3.205-1.94-1.675-.832-9.902-4.858-11.433-5.41-1.536-.554-2.653-.835-3.767.83s-4.32 5.41-5.298 6.52c-.977 1.111-1.951 1.25-3.624.418-1.672-.831-7.063-2.588-13.456-8.254-4.972-4.408-8.33-9.85-9.306-11.517-.976-1.664-.103-2.564.734-3.392.753-.746 1.673-1.942 2.51-2.913.838-.972 1.116-1.663 1.672-2.775.56-1.11.28-2.08-.139-2.914-.419-.831-3.766-9.016-5.16-12.347-1.393-3.328-2.785-2.774-3.763-2.774-.976 0-2.091-.139-3.207-.139s-2.929.416-4.463 2.08C100.321 98.746 96 102.77 96 110.953c0 8.185 5.992 16.093 6.831 17.2.836 1.109 11.57 18.45 28.577 25.11 17.013 6.66 17.013 4.438 20.081 4.161 3.064-.277 9.895-4.023 11.293-7.906 1.392-3.887 1.392-7.217.976-7.91Z"/></g></svg>